<svg xmlns="http://www.w3.org/2000/svg" viewBox="0 0 229.955 238.141"><title>Arizona Coyotes light logo</title><g fill="#FFF"><path d="M151.208 199.815c-2.637 0-4.747 2.125-4.747 4.747a4.747 4.747 0 1 0 9.495-.001 4.737 4.737 0 0 0-4.747-4.747zm0 8.5a3.731 3.731 0 0 1-3.753-3.738 3.74 3.74 0 0 1 3.753-3.738 3.724 3.724 0 0 1 3.723 3.737 3.714 3.714 0 0 1-3.722 3.738z"/><path d="M153.152 203.477c0-.904-.708-1.613-1.598-1.613h-2.29v5.44h1.01v-2.2h.722l1.04 2.2h1.115L152.08 205a1.65 1.65 0 0 0 1.072-1.523zm-1.597.588h-1.28v-1.176h1.28c.316 0 .588.27.588.587a.599.599 0 0 1-.588.588z"/></g><path d="M220.73 110.49s2.94-12.902-11.167-23.512c.12 11.228-4.747 15.885-4.747 15.885l-1.432-.708-3.15-8.47 13.685-28.62c.677 2.517 1.49 5.53 1.49 5.53l3.95-7.82s3.602-6.813 2.984-15.283l3.346-7.008-1.944-28.334c-1.37-5.516-5.667-9.57-11.168-11.318-5.29-1.673-10.535-.8-14.468 2.41l-60.013 46.405c-30.55 1.145-54.377 14.65-69.1 39.094L0 144.28c3.677 8.123 20.89 29.705 47.58 24.686l13.804-2.487S72.687 228.3 126.43 238.14c0 0-18.175-29.554-13.774-53.94 0 0 12.403 35.72 36.29 30.7-19.245-23.54-8.725-47.006-8.725-47.006s9.722 15.825 31.71 13.91c0 0-14.965-15.884-9.93-37.21l36.215 1.327 18.9-7.91 12.84-23.3-9.224-4.22z" fill="#FFF"/><path d="M212.32 94.092c-.572 6.676-6.63 12.93-6.63 12.93l-4.99-2.456-4.113-11.047 17.844-37.287a28.971 28.971 0 0 1 1.96 5.02c2.592-5.11 2.954-10.28 2.577-14.454l3.33-6.98-1.853-27.142c-.904-3.647-4.446-7.264-8.877-8.666-4.19-1.34-8.455-.573-11.484 1.9L139.316 52.9c-30.91.875-53.743 14.394-67.745 38.086l-67.32 54.15s12.48 23.63 41.13 20.812l18.506-3.33c1.99 8.59 13.082 58.204 56.004 70.215-7.264-13.986-16.67-38.868-7.445-59.275 12.283 39.456 30.308 38.356 30.308 38.356-17.422-24.732-3.225-51.016-3.225-51.016 7.098 12.147 17.347 17.543 25.71 17.543 0 0-12.267-16.156-5.8-37.316l38.174 1.402 17.136-7.19 10.505-19.125-8.244-3.738c2.576-11.65-4.69-18.385-4.69-18.385z" fill="#111"/><path d="M213.602 113.488h.03c.347-1.402 1.914-8.56-.256-13.458-1.884 5.742-5.26 8.892-6.737 10.067l-8.44-4.084.044.045 17.27 11.168-10.55 2.472h-.03l-9.433-3.496h.03l-.06-.03c.56-2.848 1.448-9.103-.557-13.64-1.944 5.894-5.275 9.315-7.083 10.837l-9.103-3.377-7.656-19.984 27.792-44.913c1.582 1.658 3.286 3.918 4.672 6.903 1.37-4.416.06-10.083-.844-13.067l3.376-5.456 7.912-5.727 1.477 7.43-13.202 36.578 10.46-22.56c.45.36 1.416 1.114 3.57 5.575 1.1-3.527-.572-11.38-.572-11.38l3.06-5.832-1.447-22.71c-1.206 1.928-2.457 6.088-2.984 7.746-2.548-17.482-9.33-4.506-11.003-14.966l-5.622 4.356c-.437 2.2-1.145 6.63-1.28 13.338 0 0-3.95-4.145-5.2-8.093-.483 2.458-1.237 7.31-1.403 14.62 0 0-4.4-4.657-5.757-9.043-.527 2.743-1.326 8.033-1.507 15.93 0 0-4.732-5.004-6.255-9.75-.603 3.028-1.462 8.83-1.673 17.466 0 0-5.516-5.848-7.023-11.228L139.69 56.822c-1.854 2.2-10.58 11.077-13.775 24.415 0 0-.015-9.42.738-12.313-2.457 1.763-11.68 8.997-16.714 14.227 0 0 .602-9.494 4.505-14.904C106.2 74.26 93.632 87.01 93.632 87.01c10.4-17.98 18.733-23.33 22.908-26.812-21.004 6.645-39.24 21.385-47.228 46.282 0 0 .15-4.973.92-9.088L10.64 144.52s9.178 16.88 35.01 16.23l33.73-5.35s-3.362-9.01-3.03-15.37c4.1 14.196 11.183 19.47 11.183 19.47s-18.93 2.488-18.93 2.503c3.437 12.434 10.958 47.414 45.214 63.856-7.973-15.39-9.374-30.008-8.033-42.245 2.17-14.59 9.6-23.466 9.6-23.466 1.206 17.12 9.33 30.066 14.634 36.818 1.387 1.93 2.91 3.708 4.642 5.245 0 0-6.903-12.48-1.854-34.86.437-1.265 4.28-11.996 8.214-15.93 5.094 14.394 17.528 19.94 17.528 19.94-8.877-18.357-1.16-35.96-1.16-35.96s39.953 1.492 40.27 1.507l15.01-6.3 7.732-14.046-6.798-3.076z" fill="#8C2633"/><path d="M159.392 81.115l42.078-47.76-44.25 45.32s-11 1.868-26.946 14.452c7.973 15.342-30.157 63.193-46.298 50.503 3.3 9.736 15.297 5.757 15.297 5.757-1.598 3.723-17.27 30.594 3.33 62.515-33.577-54.33 44.958-107.623 49.253-109.326-1.025-7.355-11.997-9.48-11.997-9.48 5.184-6.706 21.16-12.373 19.532-11.98zm-93.848 27.28c-2.517 2.124-9.208 7.52-16.73 13.548a11883.608 11883.608 0 0 1-29.795 23.782c4.294 7.7 14.377 9.796 20.27 10.37 2.698.27 4.506.21 4.506.21l28.695-5.08c.002 0-41.428-9.433-6.946-42.83z" fill="#111"/><path d="M188.675 91.364l6.24 8.877-3.528-8.785 3.527-9.073-6.24 8.982z" fill="#8C2633"/><path d="M213.602 113.488h.03c.347-1.417 1.914-8.56-.256-13.458-1.884 5.742-5.26 8.892-6.737 10.067l-8.44-4.084.044.03 17.27 11.183-10.55 2.472h-.03l-9.433-3.496h.03l-.06-.03c.56-2.848 1.448-9.103-.557-13.624-1.944 5.863-5.275 9.3-7.083 10.836l-9.103-3.39-7.656-19.985 27.792-44.913c1.582 1.658 3.286 3.918 4.672 6.903 1.37-4.416.06-10.083-.844-13.067l3.376-5.456 7.912-5.727 1.477 7.43-13.202 36.578 10.46-22.56c.45.36 1.416 1.114 3.57 5.575 1.1-3.527-.572-11.38-.572-11.38l3.06-5.832-4.52-11.272-12.796 7.068-42.078 47.76c1.613-.407-14.348 5.26-19.562 11.966 0 0 10.972 2.125 11.997 9.48-4.28 1.703-82.815 54.994-49.25 109.326 2.923 4.567 6.6 9.24 11.212 13.97-7.973-15.387-9.374-30.006-8.033-42.243 2.245-20.39 12.16-34.21 12.16-34.21s-.315 30.262 12.073 47.563c1.387 1.93 2.91 3.708 4.642 5.245 0 0-6.903-12.48-1.854-34.86 1.78-7.957 5.065-17.165 10.717-27.49-3.512 16.504 11.38 28.26 15.026 31.515-8.877-18.357-1.16-35.96-1.16-35.96s39.953 1.492 40.27 1.507l13.956-13.67 1.054 7.37 7.73-14.045-6.752-3.092zM19.02 145.725c4.295 7.7 14.378 9.796 20.27 10.37-1.702-1.674-7.384-7.627-5.636-11.998 0 0 4.793 3.768 11.318 4.46 0 0-5.41-15.01 3.828-26.615a10453.416 10453.416 0 0 1-29.78 23.783zm110.124-81.263c.618-1.93-3.225-1.537-3.225-1.537 2.652-1.733 5.35-2.758 6.72-3.195.95-1.176 1.75-2.125 2.156-2.562-1.884.15-6.767 1.206-16.367 8.048 3.902-.74 8.137-.965 10.714-.754z" fill="#E2D6B5"/><path d="M177.9 73.972L165.057 89.54l11.138 20.587-7.55-20.587 9.253-15.568z" fill="#111"/></svg>