<svg xmlns="http://www.w3.org/2000/svg" viewBox="0 0 243.886 249.404"><title>New Jersey Devils light logo</title><g fill="#FFF"><path d="M243.886 34.527C243.886 0 205.026 0 199.788 0h-9.415s13.296 13.36 13.296 18.19c0 1.092-.89 1.98-1.98 1.98h-33.873a1.979 1.979 0 0 1-1.964-1.98C165.853 13.36 179.15 0 179.15 0c-12.907 0-31.41 2.884-44.27 12.018-3.57-.36-7.232-.546-10.91-.546-59.732 0-108.148 48.416-108.148 108.148 0 11.784 1.886 23.117 5.378 33.732-7.997 9.774-21.2 29.773-21.2 55.29 0 22.04 10.896 40.762 10.896 40.762s19.39-28.385 62.85-28.385c3.32 0 4.193-2.916 4.318-3.477 13.935 6.547 29.492 10.21 45.89 10.21 59.717 0 108.132-48.416 108.132-108.148 0-19.19-4.988-37.208-13.764-52.81 11.97-3.68 25.564-13.204 25.564-32.268z"/><path d="M207.13 197.777c-2.76 0-4.988 2.245-4.988 4.988s2.245 4.972 4.988 4.972c2.743 0 4.972-2.245 4.972-4.972 0-2.743-2.23-4.988-4.972-4.988zm0 8.917a3.896 3.896 0 0 1-3.913-3.913c0-2.18 1.73-3.912 3.913-3.912a3.882 3.882 0 0 1 3.897 3.913c0 2.152-1.73 3.914-3.897 3.914z"/><path d="M209.172 201.628c0-.935-.748-1.683-1.683-1.683h-2.4v5.674h1.06v-2.292h.778l1.06 2.29h1.185l-1.122-2.4c.64-.25 1.122-.873 1.122-1.59zm-1.7.623h-1.34v-1.246h1.34c.344 0 .625.28.625.624a.626.626 0 0 1-.624.623z"/></g><path d="M239.428 34.527c0-21.433-19.672-30.817-39.468-30.07 0 0 8.168 7.888 8.168 13.734 0 3.103-2.307 6.44-8.823 6.44h-29.29c-6.593 0-10.52-2.26-10.52-6.065 0-6.22 9.773-13.483 9.773-13.483s-19.812 1.2-33.093 11.597c-4.022-.47-8.09-.734-12.205-.734C66.7 15.93 20.295 62.35 20.295 119.62c0 19.734 5.518 38.174 15.09 53.87-1.56.827-3.12 1.373-5.3 1.373-7.265 0-7.312-16.087-7.312-16.087S4.457 180.116 4.457 208.64c0 17.568 7.42 32.673 7.42 32.673S32.422 216.56 73.76 216.56c0 0-19.61-7.872-19.61-17.38 0 0 .095-.998.75-2.26 18.346 16.398 42.538 26.374 69.084 26.374 57.254 0 103.66-46.436 103.66-103.674 0-20.545-5.987-39.67-16.29-55.79 9.992-1.588 28.074-8.43 28.074-29.303z"/><path d="M208.767 9.04s3.82 3.586 3.82 9.15-4.334 10.897-13.297 10.897H170c-11.38 0-14.964-5.83-14.964-10.522 0-4.707 2.65-7.217 2.65-7.217S128.91 16.96 128.91 40.34c0 19.673 21.995 19.61 21.995 19.61h6.422l-17.94 47.45-27.264-34.542c-1.683-2.136-8.324-10.49-18.206-10.49-13.733 0-19.72 15.415-21.76 20.793l-28.962 76.584s10.724-3.913 24.925-3.913c11.987 0 22.057 2.417 22.057 2.417l13.42-35.493 17.054 30.926-12.064 12.642c-7.934 8.293-24.504 3.694-40.466 3.694-29.788 0-26.92 9.29-38.034 9.29-7.903 0-9.945-9.57-9.945-9.57S8.9 188.33 8.9 208.64c0 13.187 4.646 24.77 4.646 24.77s23.195-19.766 46.592-19.766c0 0-10.444-5.004-10.444-14.48 0-2.698 3.57-11.333 15.09-11.333 17.816 0 25.236 10.584 46.762 10.584 30.147 0 46.872-18.66 52.765-34.215l39.437-104.25s31.238.062 31.238-25.424c0-23.396-26.218-25.485-26.218-25.485z" fill="#CE1126"/><g fill="#FFF"><path d="M93.916 57.908c5.518 0 13.748 2.12 21.714 12.19l22.384 28.354 12.89-34.06S124.5 64.16 124.5 40.327c0-5.19 1.137-9.633 3.054-13.42-1.185-.032-2.37-.08-3.57-.08-51.237 0-92.778 41.542-92.778 92.78a92.323 92.323 0 0 0 8.106 37.877L68.04 81.57c5.908-15.695 14.622-23.66 25.876-23.66zm74.54 107.868c-6.795 17.94-25.298 37.114-56.91 37.114-21.51 0-29.866-9.883-45.142-10.553 15.822 12.548 35.805 20.046 57.566 20.046 51.22 0 92.763-41.526 92.763-92.763 0-17.256-4.723-33.405-12.922-47.23l-35.353 93.386z"/><path d="M105.373 163.235l9.805-10.257-10.802-19.625-11.41 30.147s-11.785-3.21-24.832-3.21c-10.148 0-19.344 2.275-25.346 4.223.748 1.34 1.528 2.666 2.338 3.975 4.676-1.62 11.597-2.915 23.008-2.915 16.414 0 31.27 3.897 37.24-2.338z"/></g></svg>