<svg xmlns="http://www.w3.org/2000/svg" viewBox="0 0 1000 1000"><path d="M496.79 539.92c3.46-.018 6.887-.018 10.418 0 3.806 0 6.907-3.09 6.91-6.888v-47.368c0-3.83-3.11-6.965-6.93-6.987-3.47-.02-6.94-.02-10.413 0-3.823.02-6.933 3.154-6.93 6.987v47.368c0 3.798 3.1 6.89 6.944 6.89zM519.677 618.24h-14.134v26.513h14.134c2.68 0 4.853-2.173 4.853-4.853v-16.806c0-2.682-2.173-4.854-4.853-4.854zM431.784 653.087h14.973L439.27 619.8M415.23 520.205c4.8-.83 9.607-1.62 14.42-2.374 1.833-.285 3.44-1.265 4.528-2.76 1.083-1.492 1.518-3.318 1.222-5.142l-3.162-19.578c-.597-3.697-4.166-6.38-7.95-5.785-4.824.755-9.644 1.55-14.455 2.382l-1.175.204 5.37 33.263 1.203-.208zM498.172 724.555l-8.483 33.287h16.965M743.014 538.533c-3.074-1.61-6.158-3.204-9.248-4.78-.973-.494-2.06-.756-3.145-.756-2.63 0-5.013 1.45-6.218 3.783l-21.744 42.083c-.847 1.64-1.005 3.51-.442 5.26.568 1.763 1.792 3.2 3.448 4.046 3.084 1.57 6.158 3.16 9.228 4.768.993.518 2.102.792 3.21.792 2.585 0 4.93-1.428 6.118-3.727l21.744-42.084c1.758-3.402.437-7.613-2.95-9.387z" fill="#FFF"/><path d="M935.697 394.51c.48-.824.09-1.906-.802-2.24-13.125-4.927-25.504-8.333-38.03-10.114-1.02-.144-1.585-1.214-1.126-2.135 10.268-20.587 16.912-44.24 21.865-69.87.213-1.103-.79-2.076-1.88-1.794-23.084 5.996-49.507 16.85-71.49 27.352-.844.403-1.827-.072-2.034-.984-3.23-14.235-7.07-30.296-14.954-44.21-.45-.794-1.512-1.013-2.25-.478-23.262 16.83-44.047 35.335-62.15 55.654-.678.76-1.872.637-2.4-.235-4.667-7.7-10.747-14.586-18.764-20.355-.636-.458-1.524-.34-2.017.27C709.8 362.306 672.215 404.26 623.71 439c-1.006.72-2.386-.262-2.024-1.445 11.01-36.02 27.59-70.342 43.752-101.86.44-.857-.033-1.907-.972-2.12-6.804-1.54-15.875-2.405-24.472-2.89-1.14-.065-1.76-1.326-1.122-2.273 20.446-30.314 36.076-67.185 45.985-100.336.283-.947-.45-1.896-1.437-1.852-17.088.763-37.724 4.608-54.81 10.534-1.044.362-2.06-.508-1.87-1.595 4.996-28.646 2.68-60.77-2.78-90.538-.167-.91-1.11-1.457-1.976-1.132-12.06 4.543-25.875 11.5-38.445 19.092-1.03.62-2.3-.158-2.217-1.356 1.89-26.932-1.09-56.697-6.865-80.674-.196-.814-1.045-1.288-1.836-1.013-8.775 3.052-19.095 8.456-28.944 14.333-.818.488-1.862.105-2.17-.796-9.27-27.133-24.142-53.52-40.172-79.734-.597-.976-2.024-.976-2.62 0-16.03 26.213-30.904 52.6-40.173 79.734-.308.9-1.352 1.284-2.17.796-9.848-5.877-20.17-11.28-28.944-14.333-.792-.275-1.642.2-1.837 1.013-5.774 23.977-8.756 53.742-6.865 80.673.084 1.197-1.187 1.975-2.216 1.355-12.57-7.593-26.385-14.55-38.445-19.092-.865-.325-1.81.223-1.975 1.132-5.46 29.77-7.776 61.892-2.78 90.538.188 1.087-.826 1.957-1.87 1.595-17.085-5.927-37.72-9.77-54.81-10.534-.987-.043-1.72.905-1.437 1.852 9.91 33.152 25.54 70.022 45.985 100.336.64.947.018 2.208-1.122 2.272-8.597.486-17.668 1.35-24.47 2.892-.94.212-1.414 1.262-.974 2.12 16.188 31.568 32.795 65.952 43.807 102.035.35 1.143-.962 2.108-1.94 1.423-42.972-30.042-84.208-74.118-116.094-113.778-.492-.612-1.38-.732-2.018-.273-8.016 5.77-14.095 12.654-18.76 20.354-.53.872-1.724.996-2.403.235-18.103-20.32-38.888-38.823-62.15-55.653-.737-.535-1.8-.316-2.25.477-7.885 13.915-11.723 29.977-14.955 44.21-.207.913-1.19 1.39-2.034.985-21.983-10.504-48.405-21.357-71.49-27.353-1.088-.282-2.093.69-1.88 1.794 4.954 25.63 11.597 49.285 21.866 69.872.46.92-.108 1.99-1.125 2.135-12.528 1.78-24.906 5.187-38.03 10.113-.894.335-1.283 1.417-.803 2.242 15.432 26.54 33.24 48.435 53.735 65.524.792.66.686 1.882-.2 2.41-8.38 5.017-15.903 10.857-22.656 17.438-.613.598-.61 1.597 0 2.197 25.98 25.54 54.282 48.35 85.04 68.393.892.58.936 1.86.093 2.51-11.336 8.772-21.322 17.875-29.886 28.115-.53.635-.455 1.59.164 2.14 22.29 19.725 47.808 35.706 77.432 47.798 1.108.452 1.29 1.92.332 2.64-10.537 7.92-19.1 16.68-26.983 26.164-.622.75-.397 1.897.47 2.342 21.17 10.88 46.866 17.914 73.518 22.738 1.212.22 1.31 1.894.132 2.258-34.035 10.534-65.3 24.143-95.228 40.807-.968.54-1.055 1.913-.166 2.574 21.94 16.294 44.31 30.497 70.343 40.645 1.09.426 1.32 1.848.413 2.59-35.578 28.998-64.67 62.38-90.08 98.692-.76 1.087.15 2.574 1.466 2.407 36.26-4.612 70-10.277 99.074-18.247 1.236-.34 2.263.92 1.69 2.066-6.23 12.427-11.845 25.657-16.968 39.534-.396 1.072.49 2.2 1.626 2.076 32.694-3.542 62.407-7.693 86.115-13.072 1.326-.3 2.318 1.157 1.57 2.295-10.028 15.277-17.135 31.812-22.844 49.974-.346 1.103.63 2.195 1.767 1.978 57.313-10.946 109.47-27.345 155.738-49.55 1.25-.6 2.682.26 2.775 1.642 2.788 41.097 18.363 69.676 39.69 92.638.79.85 2.127.893 2.98.106l29.94-27.64c.91-.838.995-2.235.18-3.166-5.92-6.77-33.172-37.697-28.35-61.212.574-2.8 3.682-4.297 6.288-3.118 34.523 15.618 106.07 39.468 162.248 50.313 1.11.215 2.044-.854 1.705-1.933-5.712-18.185-12.824-34.74-22.864-50.033-.746-1.137.245-2.594 1.573-2.294 23.708 5.38 53.42 9.53 86.115 13.072 1.135.123 2.022-1.004 1.627-2.076-5.124-13.877-10.74-27.107-16.968-39.534-.574-1.146.453-2.405 1.69-2.066 29.073 7.97 62.814 13.635 99.073 18.247 1.317.167 2.227-1.32 1.466-2.407-25.41-36.312-54.5-69.694-90.08-98.693-.906-.74-.678-2.163.413-2.59 26.032-10.148 48.404-24.35 70.34-40.645.89-.66.803-2.034-.165-2.574-29.93-16.664-61.193-30.274-95.228-40.807-1.177-.364-1.08-2.038.13-2.258 26.654-4.825 52.35-11.86 73.52-22.74.865-.444 1.09-1.592.468-2.34-7.882-9.485-16.446-18.246-26.983-26.166-.957-.72-.776-2.187.332-2.64 29.625-12.09 55.143-28.072 77.432-47.798.62-.548.694-1.504.164-2.14-8.564-10.24-18.55-19.343-29.886-28.113-.843-.652-.8-1.93.093-2.51 30.757-20.044 59.06-42.855 85.04-68.393.61-.6.613-1.6 0-2.197-6.752-6.58-14.275-12.42-22.657-17.437-.886-.53-.992-1.75-.198-2.41 20.494-17.09 38.302-38.985 53.735-65.525zM657.28 502.58c-6.383-2.077-12.842-4.108-19.224-6.04l4.875-14.508c18.682 5.657 37.42 11.955 55.736 18.732l-4.875 14.507c-6.29-2.327-12.668-4.61-18.97-6.795l-1.15-.4-24.388 72.563c-5.064-1.75-10.178-3.467-15.233-5.12l24.386-72.56-1.157-.378zm-28.53 100.645h46.134v15.015H644.41v17.423h20.724v15.015H644.41V668.1h30.474v15.016H628.75v-79.89zm-8.248 161.387h15.82V768c0 2.682 2.197 4.857 4.907 4.857h12.982c2.714 0 4.915-2.18 4.915-4.866v-4.97c0-1.806-1.294-3.586-2.627-4.305-.38-.206-28.37-12.66-28.37-12.66-5.33-2.7-7.627-8.128-7.627-14.055v-8.233c0-8.72 7.14-15.787 15.948-15.787h22.488c8.808 0 15.948 7.068 15.948 15.787v7.42h-15.82v-3.335c0-2.683-2.196-4.858-4.906-4.858h-12.983c-2.714 0-4.914 2.18-4.914 4.866v1.764c0 1.806 1.294 3.587 2.626 4.305.38.205 28.37 12.66 28.37 12.66 5.328 2.7 7.626 8.127 7.626 14.054v11.44c0 8.72-7.14 15.787-15.948 15.787H636.45c-8.808 0-15.948-7.067-15.948-15.787v-7.47zm-26.43-239.59l8.81-52.046c5.304.972 10.6 1.986 15.775 3.024l-15.325 90.563c-4.168-.835-8.342-1.642-12.518-2.422-5.84-17.383-11.815-34.99-17.764-52.345l-1.537-4.486-8.802 52.024c-5.295-.824-10.63-1.608-15.895-2.336l15.327-90.564c4.216.584 8.43 1.196 12.64 1.835 5.93 17.26 11.905 34.82 17.76 52.207l1.53 4.546zm-4.208 215.397v15.014h-24.438v32.437h-15.82v-79.89h50.105v15.016h-34.284v17.423h24.438zm-25.948-57.304v-79.89h15.66V668.1h28.903v15.016h-44.564zM410.176 307.18c21.634 32.452 49.923 59.477 84.083 80.33.086.048.2.032.27-.04.028-.03.062-.08.06-.154-.312-24.78-.084-49.89.678-74.634.026-.834-.358-1.635-1.028-2.147-19.038-14.526-34.472-32.75-45.875-54.17l.415-.243c12.858 19.713 28.83 36.646 46.19 48.974.202.14.547.02.557-.287.318-9.042.63-16.566.98-23.678 1.265-20.728 2.29-42.263 3.043-64.01.028-.77-.23-1.52-.724-2.113-15.76-18.97-27.86-36.73-36.995-54.293l.416-.24c11.036 17.188 23.513 33.172 37.087 47.51.072.075.153.09.21.09.143 0 .295-.105.3-.283 1.042-33.548 1.425-67.192 1.142-99.998l.48-.024c2.74 30.917 4.06 96.803 3.07 153.258-.002.118.04.228.122.31.13.132.336.17.502.087 14.763-7.256 29.69-17.568 45.632-31.523l.334.345c-14.482 15.52-29.523 27.557-45.98 36.8-.454.256-.744.735-.753 1.252-.106 4.968-.217 9.468-.34 13.762-1.463 31.85-1.474 69.572-.033 115.327.01.33.38.45.602.302 37.385-26.7 65.4-55.39 83.267-85.282l.423.228c-14.536 30.215-44.97 64.275-83.495 93.45-.31.236-.488.607-.476.992.25 7.132.526 14.385.826 21.556.007.2-.068.397-.206.54-.14.146-.327.226-.526.226h-.006l-8.126-.035c-.388-.003-.702-.308-.715-.693-.372-10.214-.653-20.718-.86-32.117-.004-.313-.163-.594-.423-.76-34.283-21.752-65.098-53.962-84.544-88.37l.412-.248zm26.714 433.24v15.014h-24.438v17.423h34.286v15.014h-50.105v-79.89h50.105v15.016h-34.286v17.423h24.438zm-8.483-72.32l-3.376 15.016h-16.098l19.674-79.89h21.33l19.673 79.89h-16.1l-3.377-15.015h-21.726zm58.993 39.88h21.544l21.626 79.89h-16.262l-3.826-15.014h-24.62l-3.826 15.014h-16.262l21.626-79.89zm-14.08-169.728v-57c0-9.72 7.82-17.72 17.433-17.83 3.743-.044 7.483-.065 11.227-.065 3.742 0 7.486.02 11.228.066 9.614.113 17.433 8.11 17.43 17.83v57c0 9.544-7.55 17.023-17.402 17.022-12.313-.143-20.877-.01-22.726 0-9.64 0-17.19-7.477-17.19-17.023zm51.062 121.516h-18.84v23.348h-15.66v-79.89h34.5c8.72 0 15.79 7.048 15.79 15.768v24.983c0 8.72-7.07 15.79-15.79 15.79zm-97.066-191.15c.852-.13 1.72-.195 2.575-.195 8.586 0 16.1 6.442 17.482 14.982l4.7 29.1c1.244 7.727-2.937 15.274-10.168 18.353l-1.372.584.86 1.22c5.695 8.07 11.397 16.173 17.1 24.306-5.172.68-10.414 1.417-15.62 2.194-5.795-8.192-11.583-16.352-17.367-24.482l-.435-.612-.742.122c-2.232.367-4.46.745-6.683 1.13l-1.175.204 4.39 27.197c-5.247.916-10.553 1.89-15.807 2.9l-14.645-90.68c12.2-2.35 24.61-4.475 36.908-6.323zm-51.474 304.24v15.013h-46.765v-79.89h15.82v64.877h30.945zm-2.844-89.742v-36.86l-14.13 31.98-14.13-31.98v36.86h-15.66v-79.89h12.447l17.342 40.045 17.342-40.045h12.448v79.89h-15.66zM218.036 454.69c-.25-.255-.59-.396-.956-.396-.82.014-1.616.02-2.408.02-23.527 0-44.766-5.99-64.932-18.318l.23-.42c19.075 9.078 36.925 13.492 54.57 13.49 2.525 0 5.074-.093 7.58-.278-4.42-4.432-8.416-8.294-12.213-11.836-25.683-25.06-46.9-47.653-64.863-69.067l.358-.32c21.365 22.322 39.926 40.695 56.737 56.165l.233-.085c2.3-14.197 1.16-27.577-3.484-40.895l.442-.186c6.656 13.71 9.354 28.72 8.016 44.612-.053.63.196 1.254.668 1.67 15.197 13.413 29.603 26.89 42.82 40.057.038.017.08.005.08-.035.025-18.636-5.033-35.33-15.463-51.036l.384-.29c13.81 16.148 21.002 35.264 21.38 56.818.01.63.255 1.22.69 1.663 2.093 2.135 4.156 4.264 6.13 6.324.144.15.205.354.167.556-.037.205-.166.373-.356.463l-5.55 2.624c-.1.047-.21.07-.32.07-.213 0-.418-.09-.56-.246-11.245-12.27-20.856-22.452-29.382-31.125zm75.223 153.326l-35.195-67.98-1.076.57c-5.933 3.144-11.884 6.376-17.708 9.617l-7.036-13.59c17.055-9.494 34.608-18.582 52.214-27.034l7.038 13.59c-6.037 2.9-12.11 5.892-18.076 8.91l-1.085.55 35.194 67.98c-4.77 2.417-9.56 4.898-14.27 7.386zm27.792-112.898c7.027-2.476 14.18-4.902 21.266-7.212 1.728-.564 3.52-.848 5.334-.848 7.528 0 14.477 4.99 16.9 12.135l18.306 53.98c1.476 4.35 1.168 8.98-.863 13.04-2.07 4.13-5.673 7.21-10.153 8.67-7.1 2.315-14.275 4.748-21.318 7.23-1.904.67-3.875 1.01-5.854 1.01-7.287 0-13.754-4.64-16.094-11.543L310.27 517.6c-3.125-9.204 1.712-19.29 10.782-22.482zM615.55 851.384c-9.526 0-18.353-.93-26.653-2.332-.135-.023-.226.14-.128.235 8.133 7.914 24.332 15.976 33.473 19.546l4.327 1.69-4.583-.768c-10.678-1.79-33.05-12.385-45.23-22.983-.148-.127-.32-.213-.51-.256-19.933-4.536-37.008-10.605-54.056-10.605-22.165 0-38.345 5.09-46.32 27.165-.422-4.972.048-9.352 1.24-13.195.05-.16.004-.32-.136-.41-4.338-2.89-20.777-13.07-37.1-13.07-24.487 0-56.06 27.51-80.263 30.316 11.73-3.98 24.873-12.8 38.136-20.86.116-.07.087-.252-.047-.278-22.364-4.37-50.486.446-80.32 7.997 28.556-11.097 57.74-16.995 88.184-12.51.156.024.317-.006.454-.084 11.45-6.478 22.79-11.528 33.188-11.528 19.328 0 35.918 10.042 40.96 13.33.132.085.293.04.383-.09 7.692-11.306 23.57-15.89 40.294-15.89 26.458 0 67.267 19.62 99.74 19.62 35.628 0 45.783-3.236 56.45-5.498-10.036 4.126-26.006 10.46-61.485 10.46zm147.12-299.797l-26.165 50.64c-2.933 5.674-8.708 9.2-15.072 9.2-2.825 0-5.662-.715-8.206-2.067-6.622-3.522-13.35-6.998-19.997-10.333-4.21-2.112-7.314-5.696-8.743-10.088-1.403-4.32-1.014-8.945 1.095-13.027l26.165-50.64c3.034-5.874 9.283-9.67 15.922-9.67 2.718 0 5.326.617 7.746 1.833 6.664 3.342 13.375 6.81 19.952 10.307 8.488 4.516 11.765 15.21 7.302 23.844zm13.05-93.018c2.34.147 4.697.222 7.01.222 16.24 0 32.017-3.627 49.656-11.414l.223.426c-18.125 11.084-38.437 16.61-62.097 16.89-.743.008-1.46.316-1.963.842-6.792 7.087-12.664 13.356-17.953 19.166-.163.18-.398.284-.644.284-.137 0-.275-.033-.4-.097l-5.65-2.913c-.18-.092-.3-.258-.334-.456-.033-.194.027-.387.166-.53 14.35-14.824 30.084-29.886 46.76-44.77.5-.448.77-1.117.72-1.79-1.346-17.842.547-33.552 5.79-48.028l.463.13c-2.958 14.917-3.42 30.204-1.34 44.21.017.116.117.167.202.167.036 0 .09-.01.14-.055 21.99-20.854 42.436-40.796 62.508-60.97l.354.327c-16.942 19.793-35.418 39.824-54.916 59.54-9.595 9.12-19.296 18.7-28.835 28.476-.077.077-.053.168-.038.206.01.03.056.13.176.135z" fill="#FFF"/><path d="M349.07 566.006h.002c.767 0 1.528-.126 2.262-.38 3.273-1.13 6.55-2.243 9.837-3.337 1.764-.59 3.188-1.827 4.012-3.48.82-1.65.944-3.523.35-5.274l-15.21-44.86c-.966-2.838-3.626-4.745-6.623-4.745-.743 0-1.48.12-2.188.356-3.294 1.098-6.577 2.212-9.858 3.344-3.616 1.246-5.553 5.213-4.32 8.843l15.213 44.86c.95 2.795 3.57 4.673 6.522 4.673z" fill="#FFF"/><path d="M494.31 395.8c.26.165.418.447.424.76.206 11.4.486 21.903.858 32.116.014.385.327.69.715.693l8.126.034h.005c.2 0 .387-.08.527-.225.138-.144.213-.342.206-.542-.3-7.172-.576-14.425-.825-21.556-.013-.385.164-.756.476-.99 38.526-29.177 68.96-63.237 83.496-93.452l-.424-.228c-17.867 29.89-45.882 58.583-83.267 85.282-.222.148-.59.028-.602-.3-1.44-45.756-1.43-83.478.033-115.328.122-4.294.233-8.794.34-13.762.01-.517.3-.997.752-1.252 16.458-9.243 31.498-21.28 45.98-36.8l-.333-.346c-15.943 13.955-30.87 24.267-45.633 31.523-.166.08-.37.044-.502-.088-.08-.082-.124-.192-.122-.31.988-56.455-.33-122.34-3.07-153.258l-.48.024c.283 32.806-.1 66.45-1.14 99.998-.007.18-.16.284-.303.284-.056 0-.137-.016-.21-.09-13.573-14.34-26.05-30.323-37.086-47.51l-.416.24c9.134 17.562 21.235 35.32 36.995 54.29.494.593.75 1.345.723 2.115-.753 21.746-1.777 43.282-3.043 64.01-.35 7.11-.662 14.635-.98 23.676-.01.31-.356.43-.557.288-17.36-12.327-33.332-29.26-46.19-48.974l-.415.244c11.403 21.418 26.837 39.644 45.875 54.17.67.51 1.054 1.312 1.028 2.146-.76 24.745-.988 49.855-.676 74.634 0 .075-.032.124-.06.155-.073.07-.186.087-.272.038-34.16-20.85-62.45-47.876-84.084-80.33l-.41.253c19.444 34.404 50.26 66.614 84.542 88.367zM247.977 486.06c.112 0 .22-.024.32-.07l5.55-2.625c.19-.09.32-.258.357-.463.038-.202-.022-.406-.166-.556-1.975-2.06-4.038-4.19-6.13-6.324-.435-.444-.68-1.033-.692-1.663-.377-21.555-7.57-40.67-21.38-56.82l-.383.29c10.43 15.707 15.488 32.4 15.462 51.037 0 .04-.04.052-.08.035-13.216-13.168-27.62-26.644-42.82-40.056-.47-.416-.72-1.04-.667-1.67 1.338-15.894-1.36-30.902-8.016-44.613l-.443.186c4.644 13.317 5.783 26.698 3.483 40.894l-.234.085c-16.81-15.47-35.373-33.844-56.738-56.167l-.358.32c17.963 21.415 39.18 44.007 64.863 69.068 3.796 3.543 7.793 7.405 12.214 11.837-2.506.185-5.055.277-7.58.277-17.645.003-35.495-4.41-54.57-13.49l-.23.42c20.166 12.328 41.405 18.32 64.932 18.32.792 0 1.587-.007 2.408-.02.365 0 .706.14.956.394 8.526 8.672 18.136 18.855 29.38 31.123.144.16.35.25.56.25zM804.418 429.752c19.498-19.715 37.974-39.747 54.916-59.54l-.354-.326c-20.07 20.174-40.52 40.116-62.51 60.97-.048.045-.102.054-.138.054-.085 0-.185-.05-.2-.166-2.084-14.007-1.62-29.294 1.337-44.212l-.464-.13c-5.243 14.477-7.136 30.187-5.79 48.03.05.67-.22 1.34-.72 1.79-16.677 14.883-32.41 29.945-46.76 44.77-.14.142-.2.335-.167.53.032.198.153.364.332.456l5.652 2.912c.124.064.262.097.4.097.245 0 .48-.104.643-.284 5.29-5.81 11.16-12.078 17.953-19.166.504-.526 1.22-.834 1.963-.843 23.66-.28 43.972-5.804 62.096-16.89l-.224-.425c-17.64 7.786-33.417 11.413-49.655 11.413-2.313 0-4.67-.075-7.01-.223-.12-.007-.165-.106-.176-.134-.015-.038-.04-.13.038-.206 9.54-9.778 19.24-19.357 28.836-28.478zM520.846 826.802c-16.723 0-32.602 4.585-40.295 15.89-.09.132-.25.177-.383.09-5.04-3.287-21.63-13.33-40.96-13.33-10.398 0-21.738 5.05-33.187 11.53-.137.078-.298.107-.454.085-30.444-4.486-59.63 1.412-88.184 12.51 29.835-7.552 57.956-12.37 80.32-7.998.133.025.163.206.046.277-13.264 8.06-26.406 16.88-38.135 20.86 24.203-2.806 55.776-30.317 80.262-30.317 16.324 0 32.763 10.18 37.1 13.07.14.093.186.25.136.41-1.19 3.844-1.66 8.223-1.24 13.196 7.977-22.074 24.156-27.164 46.323-27.164 17.048 0 34.123 6.07 54.057 10.605.19.043.36.13.508.256 12.18 10.597 34.553 21.192 45.23 22.983l4.584.77-4.327-1.692c-9.14-3.57-25.34-11.632-33.474-19.546-.097-.095-.006-.258.13-.235 8.3 1.403 17.126 2.332 26.65 2.332 35.48 0 51.45-6.334 61.487-10.46-10.667 2.264-20.822 5.498-56.45 5.498-32.474 0-73.283-19.62-99.74-19.62zM513.236 555.274c9.852 0 17.403-7.477 17.403-17.023v-57c0-9.717-7.818-17.715-17.432-17.828-3.742-.045-7.486-.066-11.228-.066-3.743 0-7.484.02-11.227.066-9.614.11-17.434 8.108-17.434 17.83v57c0 9.546 7.55 17.023 17.19 17.023 1.85-.01 10.413-.144 22.726 0zm-23.39-69.61c-.004-3.833 3.107-6.967 6.93-6.987 3.47-.02 6.943-.02 10.41 0 3.822.022 6.93 3.157 6.93 6.987v47.368c-.002 3.8-3.102 6.89-6.908 6.89-3.53-.02-6.96-.02-10.42 0-3.843 0-6.943-3.092-6.943-6.89v-47.368zM388.66 603.225h-12.45l-17.342 40.046-17.342-40.045h-12.448v79.89h15.66v-36.86l14.13 31.982 14.13-31.982v36.86h15.66M420.86 562.72l-4.39-27.197 1.176-.204c2.225-.386 4.45-.764 6.683-1.13l.74-.123.436.612c5.784 8.13 11.572 16.288 17.368 24.48 5.205-.776 10.447-1.512 15.62-2.193-5.705-8.133-11.406-16.235-17.1-24.306l-.86-1.22 1.37-.583c7.232-3.078 11.413-10.626 10.168-18.352l-4.7-29.1c-1.38-8.54-8.895-14.983-17.48-14.983-.857 0-1.723.066-2.575.194-12.298 1.848-24.707 3.974-36.906 6.323l14.646 90.68c5.253-1.01 10.558-1.984 15.805-2.9zm-11.027-75.774c4.81-.833 9.63-1.627 14.456-2.382 3.782-.595 7.35 2.088 7.948 5.785l3.162 19.577c.296 1.824-.14 3.65-1.222 5.14-1.087 1.497-2.695 2.477-4.53 2.763-4.81.753-9.617 1.545-14.417 2.374l-1.2.208-5.37-33.262 1.173-.204zM540.172 643.978v-24.983c0-8.72-7.07-15.77-15.79-15.77h-34.5v79.892h15.66V659.77h18.84c8.72-.002 15.79-7.072 15.79-15.792zm-15.64-4.078c0 2.68-2.174 4.853-4.854 4.853h-14.134V618.24h14.134c2.68 0 4.853 2.172 4.853 4.854V639.9zM329.077 707.98v79.89h46.765v-15.013h-30.946V707.98M755.368 527.744c-6.577-3.497-13.288-6.965-19.952-10.307-2.42-1.216-5.028-1.832-7.747-1.832-6.64 0-12.89 3.796-15.923 9.67l-26.165 50.64c-2.11 4.08-2.498 8.706-1.095 13.025 1.43 4.392 4.534 7.976 8.743 10.088 6.647 3.335 13.375 6.81 19.997 10.333 2.545 1.352 5.382 2.067 8.206 2.067 6.365 0 12.14-3.525 15.072-9.2l26.165-50.64c4.463-8.633 1.186-19.328-7.302-23.843zm-9.404 20.176l-21.744 42.084c-1.19 2.298-3.533 3.727-6.118 3.727-1.108 0-2.217-.274-3.21-.79-3.07-1.61-6.144-3.198-9.228-4.77-1.657-.846-2.88-2.283-3.448-4.046-.562-1.752-.405-3.62.442-5.26l21.744-42.083c1.205-2.332 3.587-3.782 6.22-3.782 1.084 0 2.172.262 3.144.757 3.09 1.576 6.174 3.17 9.248 4.78 3.387 1.772 4.708 5.983 2.95 9.385zM344.67 583.125c1.98 0 3.95-.34 5.853-1.01 7.043-2.483 14.216-4.916 21.318-7.23 4.48-1.462 8.085-4.54 10.154-8.672 2.03-4.06 2.34-8.69.863-13.04l-18.307-53.98c-2.422-7.145-9.37-12.134-16.9-12.134-1.812 0-3.605.284-5.333.847-7.085 2.31-14.24 4.736-21.266 7.212-9.07 3.19-13.906 13.276-10.782 22.482l18.307 53.98c2.34 6.903 8.807 11.543 16.094 11.543zm-13.015-75.495c3.28-1.132 6.565-2.246 9.858-3.344.708-.236 1.445-.355 2.187-.355 2.997 0 5.657 1.908 6.622 4.746l15.212 44.86c.593 1.75.468 3.623-.35 5.273-.824 1.654-2.25 2.89-4.012 3.48-3.288 1.092-6.565 2.205-9.837 3.336-.734.253-1.495.38-2.262.38h-.003c-2.952 0-5.574-1.878-6.522-4.674l-15.212-44.86c-1.234-3.63.703-7.596 4.32-8.842zM273.422 532.097c5.965-3.017 12.038-6.01 18.076-8.91l-7.038-13.59c-17.605 8.452-35.16 17.54-52.214 27.033l7.036 13.59c5.824-3.24 11.775-6.472 17.707-9.617l1.075-.57 35.194 67.98c4.71-2.487 9.5-4.967 14.27-7.388l-35.193-67.98 1.085-.548zM562.143 466.436L546.817 557c5.263.727 10.6 1.512 15.896 2.336l8.802-52.025 1.537 4.487c5.948 17.355 11.923 34.962 17.764 52.346 4.176.78 8.35 1.587 12.518 2.422l15.325-90.563c-5.175-1.04-10.472-2.053-15.777-3.024l-8.81 52.047-1.53-4.545c-5.853-17.386-11.828-34.946-17.76-52.208-4.21-.64-8.424-1.252-12.64-1.836zM636.45 787.87h22.487c8.808 0 15.948-7.067 15.948-15.787v-11.44c0-5.926-2.298-11.353-7.627-14.054 0 0-27.99-12.455-28.37-12.66-1.332-.72-2.626-2.5-2.626-4.306v-1.764c0-2.687 2.2-4.865 4.914-4.865h12.983c2.71 0 4.906 2.174 4.906 4.857v3.336h15.82v-7.42c0-8.72-7.14-15.788-15.95-15.788H636.45c-8.808 0-15.948 7.068-15.948 15.787V732c0 5.927 2.298 11.355 7.627 14.055 0 0 27.99 12.455 28.37 12.66 1.332.72 2.626 2.5 2.626 4.306v4.97c0 2.688-2.2 4.866-4.915 4.866H641.23c-2.71 0-4.907-2.174-4.907-4.857v-3.388H620.5v7.47c.002 8.72 7.142 15.79 15.95 15.79zM674.885 668.1h-30.473V650.68h20.723v-15.015h-20.723V618.24h30.473v-15.015H628.75v79.89h46.135M599.712 722.995V707.98h-50.105v79.89h15.82v-32.437h24.437V740.42h-24.437v-17.425M649.283 580.64l24.387-72.563 1.15.4c6.303 2.184 12.68 4.466 18.972 6.795l4.875-14.507c-18.316-6.777-37.054-13.075-55.735-18.732l-4.875 14.507c6.382 1.933 12.84 3.963 19.223 6.04l1.158.378-24.387 72.56c5.054 1.653 10.17 3.372 15.233 5.12zM485.862 772.857h24.62l3.826 15.014h16.262l-21.626-79.89H487.4l-21.626 79.89h16.262l3.826-15.013zm12.31-48.302l8.482 33.287h-16.966l8.484-33.287zM453.51 683.116h16.1l-19.675-79.89h-21.33l-19.673 79.89h16.1l3.375-15.015h21.726l3.377 15.016zm-21.726-30.03l7.486-33.286 7.486 33.287h-14.972zM608.48 668.1h-28.903v-64.875h-15.66v79.89h44.562M446.737 722.995V707.98h-50.105v79.89h50.105v-15.013H412.45v-17.424h24.44V740.42h-24.44v-17.425" fill="#003E7E"/><g><path d="M708.066 926.054v16.28h-4.07v-16.28h-4.713v-4.044h13.495v4.044h-4.712zm22.06 16.28v-11.996l-3.43 7.473h-3.594l-3.428-7.472v11.996h-4.07V922.01h4.07l5.226 10.853 5.226-10.853h4.07v20.324h-4.07z" fill="#FFF"/></g></svg>