<svg xmlns="http://www.w3.org/2000/svg" viewBox="0 0 239.358 177.248"><title>Detroit Red Wings light logo</title><g fill="#FFF"><path d="M124.663 142.144c-2.48 0-4.49 2.02-4.49 4.49 0 2.492 2.02 4.49 4.49 4.49 2.492 0 4.49-2.01 4.49-4.49.012-2.48-1.997-4.49-4.49-4.49zm0 8.016a3.524 3.524 0 1 1 3.525-3.525 3.523 3.523 0 0 1-3.525 3.525z"/><path d="M126.516 145.59c0-.84-.696-1.526-1.527-1.526h-2.168v5.13h.965v-2.077h.696l.977 2.088h1.066l-1.022-2.167a1.537 1.537 0 0 0 1.012-1.447zm-1.516.562h-1.2v-1.123h1.2a.561.561 0 0 1 0 1.122z"/></g><path d="M219.545 54.09c10.058-8.6 19.814-22.464 19.814-38.35 0-2.3-2.807-2.95-3.952-1.39-10.36 14.155-20.14 19.532-26.044 21.575 9.823-7.432 19.454-19.578 21.924-33.352.258-2.515-2.47-3.244-3.727-1.93-12.022 12.022-28.59 24.853-73.09 24.853-10.755 0-23.048-.314-30.996-.314-36.125 0-49.405 22.35-52.402 28.547-2.975-.416-5.972-.686-8.97-.686C27.853 53.044 0 80.907 0 115.157c0 34.24 27.85 62.09 62.102 62.09 25.202 0 47.474-14.874 57.218-38 .685.067 1.403.19 2.02.19 7.87 0 9.52-2.3 9.52-4.242 0-1.044-1.032-2.29-1.537-3.03 11.54-.057 14.93-.607 19.926-2.325.807-.247 1.29-1.01 1.29-1.807 0-1.706-3.502-4.524-6.028-6.724 16.143-.27 28.03-3.155 28.03-6.927 0-.73-.066-1.66-4.355-5.04 9.115-2.48 25.112-8.62 25.112-12.63 0-1.537-1.337-2.49-2.91-3.59 14.19-5.345 26.1-14.752 26.1-18.13 0-2.73-3.995-2.953-5.994-3.11 7.072-4.525 16.906-12.237 16.906-15.57.012-3.437-5.4-2.08-7.857-2.224z" fill="#CE1126"/><path d="M215.39 54.964c11.305-8.464 22.05-23.092 22.05-39.234 0-.337-.327-.393-.472-.247-17.48 23.855-33.363 23.62-33.363 23.62-.696 0-.853-.978-.292-1.36 11.27-6.633 23.36-20.318 26.078-35.506.046-.202-.257-.45-.47-.236-12.842 12.832-30.467 25.428-74.45 25.428-14.088 0-21.43-.314-30.995-.314-38.123 0-49.854 25.348-51.246 28.705a60.078 60.078 0 0 0-10.127-.854c-33.24 0-60.182 26.942-60.182 60.193 0 33.24 26.943 60.18 60.183 60.18 25.45 0 47.205-15.805 56.006-38.122 1.133.202 2.21.303 3.22.303 6.13 0 7.612-1.37 7.612-2.323 0-.65-3.93-4.928-1.976-4.928 13.595 0 16.648-.506 21.644-2.224-2.39-3.75-11.057-8.61-6.6-8.61 21.553 0 28.625-4.165 28.625-5.04 0-1.033-6.87-5.972-6.87-5.972 9.924-1.64 27.627-9.576 27.627-11.697 0-1.224-5.052-3.29-4.232-4.468 15.727-5.232 27.425-15.403 27.425-17.255 0-1.482-9.228-1.313-9.228-1.313v-.977c7.993-4.154 20.14-14.178 20.14-16.38-.003-1.416-11.408.942-10.106-1.37z" fill="#FFF"/><path d="M76.886 103.786a18.931 18.931 0 0 0-7.52-5.815l-.484.484 1.01 6.87c.303.247.606.505.898.786l5.03.034c.336-.73.696-1.528 1.066-2.358zm-21.8-5.243l5.556 4.165c.393-.045.797-.08 1.2-.08l4.952-4.882-.1-.674a18.816 18.816 0 0 0-4.592-.573c-2.492 0-4.85.482-7.016 1.357v.686zm12.056 1.617l-2.717 2.683c1.156.213 2.245.595 3.267 1.1l-.55-3.783zm2.032 25.348a12.653 12.653 0 0 1-3.087 1.538l3.053 2.28.034-3.818zm-24.877 17.186l8.868-8.723a20.791 20.791 0 0 1-8.498-7.408l-7.443 9.98a33.315 33.315 0 0 0 7.073 6.152zm28.155-34.61c.483.697.898 1.472 1.235 2.27.28-.53.696-1.292 1.167-2.246l-2.402-.023zm-16.67 26.932c-.214-.08-.428-.146-.652-.225l-9.104 8.96a32.458 32.458 0 0 0 11.585 3.894l-1.83-12.628zm16.603-12.146l-.46.067a9.924 9.924 0 0 1-.775.898l-.067 6.95.55.403a18.51 18.51 0 0 0 4.468-3.727c-1.84-1.672-3.177-3.266-3.715-4.59zM55.03 104.796a12.437 12.437 0 0 1 3.086-1.538l-3.053-2.268-.034 3.806zM43.6 124.733c-.11-.213-.212-.404-.302-.617l-12.775-.112a32.548 32.548 0 0 0 5.445 10.956l7.633-10.227zm25.518 7.027l-5.568-4.154c-.393.056-.786.08-1.19.09l-4.94 4.872.09.685c1.483.36 3.02.573 4.604.573 2.48 0 4.85-.494 7.005-1.37v-.696zm-12.057-1.605l2.718-2.683a12.141 12.141 0 0 1-3.278-1.1l.56 3.783zm14 3.817l-.112 12.775a32.923 32.923 0 0 0 10.968-5.445l-10.25-7.634c-.202.102-.393.203-.606.304zM51.74 122.23a12.726 12.726 0 0 1-1.538-3.098l-2.28 3.053 3.818.045zm1.684 1.975l-6.95-.056-.392.538a18.76 18.76 0 0 0 8.756 7.656l.494-.483-1.01-6.87a15.056 15.056 0 0 1-.898-.785zm-.37-17.725l.056-6.95-.54-.414a18.785 18.785 0 0 0-7.644 8.78l.47.482 6.87-1c.26-.303.518-.618.788-.898zm-5.95 3.626l2.672 2.728a12.847 12.847 0 0 1 1.1-3.278l-3.772.55zm-3.076.45c-.37 1.48-.573 3.02-.573 4.602 0 2.48.483 4.85 1.37 7.005l.674.01 4.153-5.567a14.521 14.521 0 0 1-.08-1.19l-4.882-4.962-.662.1zm13.82 25l1.784 12.314c.808.056 1.64.09 2.47.09 2.357 0 4.66-.247 6.88-.718l.113-12.438c-2.19.775-4.535 1.2-6.994 1.2a22 22 0 0 1-4.253-.45zm22.473-45.14c0-.853-.02-1.695-.055-2.56-.112-.09-.236-.168-.36-.247L71.04 96.33c2.593 1.224 4.906 3.01 6.78 5.153 1.37-3.604 2.503-7.623 2.503-11.07zm-27.783 6.24c.202-.11.404-.224.606-.302l.112-12.786a32.717 32.717 0 0 0-10.968 5.445l10.25 7.644zm13.82-1.907L64.57 82.444a36.069 36.069 0 0 0-2.47-.09c-2.368 0-4.67.247-6.892.718l-.1 12.438a21.154 21.154 0 0 1 6.993-1.2c1.46 0 2.887.158 4.256.44zm21.553 40.636c-3.794-1.953-7.353-4.266-10.137-6.5a21.094 21.094 0 0 1-4.266 3.705l9.98 7.433a33.292 33.292 0 0 0 4.423-4.637zm-9.733-48.832a32.792 32.792 0 0 0-11.596-3.895l1.842 12.628c.225.067.438.135.65.225l9.105-8.96zM29.3 115.157c0 2.357.247 4.66.718 6.88l12.438.102a20.827 20.827 0 0 1-1.19-6.983c0-1.47.146-2.885.427-4.266l-12.304 1.797c-.057.82-.09 1.64-.09 2.47zm.314-4.48l12.64-1.84c.067-.213.146-.427.213-.65L33.51 99.07a32.403 32.403 0 0 0-3.896 11.608zm4.94-13.324l8.722 8.868c1.64-3.48 4.232-6.41 7.41-8.497l-9.97-7.443a33.182 33.182 0 0 0-6.163 7.073z" fill="#CE1126"/><circle cx="62.102" cy="115.157" r="6.769" fill="#CE1126"/><path d="M62.102 74.576c-22.407 0-40.57 18.175-40.57 40.582s18.163 40.57 40.57 40.57c13.684 0 25.775-6.78 33.128-17.142-1.55-.54-3.11-1.18-4.66-1.897-6.52 8.61-16.85 14.166-28.468 14.166-19.713 0-35.698-15.986-35.698-35.698 0-19.735 15.986-35.71 35.698-35.71 6.59 0 12.753 1.785 18.04 4.894-.045-1.762-.056-3.58.09-5.5a40.449 40.449 0 0 0-18.13-4.266z" fill="#CE1126"/><path d="M107.196 140.17c-2.616.628-6.006.235-9.632-.82-7.723 11.316-20.723 18.736-35.45 18.736-23.71 0-42.93-19.22-42.93-42.917 0-.764.023-1.517.068-2.27-1.325 2.022-.943 5.345-3.3 5.345-1.863 0-.83-2.548-2.2-2.548-.842 0-.965 1.167-2.02 1.167-.136 0-.237-.045-.315-.045-.236 0-.326.504-.763.504-.55 0-.92-.662-1.37-.662-.494 0-.65.943-1.29.943-.675 0-1.314-1.123-1.584-1.64.427 30.412 25.202 54.93 55.714 54.93 23.34 0 43.332-14.36 51.628-34.734-6.253-1.885-12.225-5.073-12.225-5.073.36 3.716 5.67 9.082 5.67 9.082zM11.9 93.84c1.29 1.054.257 2.918 1.178 4.21 7.072-20.264 26.347-34.8 49.012-34.8 7.398 0 14.448 1.56 20.813 4.355.47-1.123 1.01-2.28 1.628-3.47a55.417 55.417 0 0 0-22.44-4.714c-23.406 0-43.444 14.45-51.684 34.914.46.302.966-.944 1.493-.495zm118.24-57.265h30.66c39.167 0 56.32-14.01 63.067-26.415.382-.75-.09-.908-.83-.235-8.533 7.645-21.252 21.004-73.205 21.004h-21.924c-34.475 0-47.463 15.547-50.842 25.92a54.91 54.91 0 0 1 5.074 1.55c6.13-11.047 17.815-21.824 48.002-21.824z" fill="#CE1126"/><path d="M129.423 44.48c-30.68 0-48.36 21.07-46.33 41.198 1.505 15.01-6.88 27.19-6.88 27.19s11.71-5.3 11.71-26.662c0-20.24 20.138-34.98 37.112-34.98 16.412 0 35.463.1 44.904.1 50.078 0 62.202-23.136 63.92-27.648.302-.674-.136-.54-.304-.225-10.45 14.1-25.09 22.16-64.807 22.16-25.53 0-33.613-1.134-39.327-1.134z" fill="#CE1126"/><path d="M140.862 62.014c-8.285 0-9.115 2.313-9.115 2.313-.27.326-.135 1.078-.707 1.302-1.897.73-3.985-.843-5.613 1.268-.988 1.27-3.38-.292-4.917.606-.348.202 0 1.09.27 1.2.717.315 1.92.226 2.368.596.483.393.427.943.876 1.27.55.403 1.572.583 2.032 1.21.348.484.47 1.45.988 1.483 12.438.707 25.202.707 37.012-3.862 1.324-2.11-11.586-7.386-23.194-7.386zM91.985 89.44c.157 1.2-.146 3.052.1 3.075 8.656.943 17.446-.595 25.45-4.277 2.234-.943-8.69-6.634-17.793-6.634-2.952 0-4.95 1.257-4.95 1.257-.53.293-.933 1.494-1.528 2.37-.438.662.404 1.684.056 2.11-.65.797-1.46 1.28-1.335 2.1zm11.843-21.072c-.427.067-.74.74-1.055 1.19-.786 1.11-3.267.864-3.256 2.122.034 2.3-2.526 2.717-2.93 4.367-.326 1.302-1.022 2.28-1.123 3.67 9.183.046 18.635-.538 26.774-5.22 2.145-.965-11.203-7.173-18.41-6.13zm29.22-7.87c-.66-2.66-3.894-3.165-6.095-4.444-.876-.516-1.908-.28-2.92.157-2.177.944-4.995-.66-7.25.966-.64.47-.978 1.336-1.808 1.55-1.044.268-2.077.313-3.132.448-.382.056-1.11.314-1.055.752.213 1.875-1.538 2.268-2.92 2.75-1.346.47-.875 2.256-.92 3.57 8.96.1 18.254-1.167 26.1-5.747zM87.45 104.685c2.29 1.19 13.415-.404 19.22-4.008-5.95-5.063-15.493-6.893-15.493-6.893-1.325 3.593-2.695 7.196-3.727 10.9z" fill="#CE1126"/><path d="M85.766 106.783c-1.09.584-2.335 2.223-1.347 2.885 1.773 1.2 4.703 3.884 18.207 3.884 13.157 0 18.163-4.064 20.644-6.59 0-1.64-11.562-4.962-13.122-4.053-.47.235-.528.706-.595.92-.528.213-2.122.236-2.515.516-.898.662-.718 1.73-.965 1.785-2.054.517-4.59-.774-6.533.113-.528.236-.483 1.684-1.167 1.74-1.392.1-2.94-.74-4.288-.314-.236.09-.954.19-1.437.493-.752-.382-1.134-.47-2.1-.707-.706-.168-1.402.314-2.267.168-.82-.134-1.728-1.245-2.514-.84zm53.345-9.497c2.437-1.27 5.367-1.38 7.14-3.794-10.9-5.703-23.63-5.108-25.18-4.21-.392.225-.83 1.022-1.324 1.325-.74.494-1.448.247-1.942.752-.292.29.034 1.077-.18 1.37-.27.38-.876.448-1.246.66-.393.214-1.19-.134-1.796.124s-.63.82-1.022 1.01c-1.47.74-3.58-.112-4.59-.112-.517.034-.383.842-.226 1.01.662.64 2.548.83 2.47 1.796-.01.202-.47.853-.752.898 1.01 2.133 10.305 4.962 22.542.898 2.032-.606 4.154-.718 6.107-1.728zm13.932-15.705c1-.684 2.28-.695 2.874-1.638 1.313-1.718-11.428-4.546-16.603-4.546-5.13 0-14.627 1.29-16.244 1.863-.675.28-.708 1.65-1.505 1.75-1.527.19-3.03.37-4.558.505-.505.034-.382.842-.225.977 1 .797 1.302 1.29 1.718 2.537.045.11 1.078.01 1.302.212 1 .853 1.706 2.077 2.952 2.38 6.04 1.448 11.866 1.852 18.04.415.662-.157 1.145-.696 1.73-.763 2.166-.28 4.422-.404 6.106-2.01 1.202-1.156 3.088-.796 4.412-1.683zm14.64-26.1c.358-.224.066-1.37-.226-1.402-1.392-.213-2.896-.763-4.39.573-.504.46-1.447-.527-2.143-.1-.573.337-1.134 1.246-1.65 1.482-1.437.64-2.83-.853-4.412-.674-.47.045-.347 1.09-.818 1.19-1.358.326-2.548-1.167-3.312-.662-1.18.763-2.167 1.73-3.592 1.09-1.37-.63-3.166-1.91-4.11-1.1-1.627 1.413-3.59-.64-5.028-.09-1.2.47-4.457 1.245-2.234 2.536 6.893 4.175 21.284 3.344 31.915-2.84zm-68.344 78.29c-.36-.662-1.29-.303-1.942-.696-.47-.27-.696-1.246-1.145-1.628-.358-.28-1.2.37-1.638.112-.63-.36-1.1-1.156-1.583-1.684-.54-.606-1.034-1.246-1.573-1.84-.494-.574-1.022-1.09-1.65-1.46-.337-.202-1.01.236-1.414.135-.73-.203-1.167-1.472-1.75-2-.338-.302-.888-.347-1.19-.64-.315-.29-.383-.84-.708-1.2-.415-.483-1.055-.65-1.527-1.033-.64-.516-1.1-1.82-1.594-2.548-.494-.73-1.2-.81-1.673-1.438-.583-.797-.92-2.122-1.638-2.93-.707-.808-2.515.483-3.053 1.572-.9 1.785-.843 4.053.527 5.59 6.758 7.544 15.514 13.797 25.55 15.458-.764-1.067-1.54-2.953-2-3.772zm22.205-2.526c-1.033-.28-1.92-.842-2.863-1.235-.584-.237-1.134.673-1.75.29-1.258-.75-2.347-1.83-3.346-2.626-.797-.64-2.39-2.234-3.076-1.908-.258.123-.65 1.605-1.302 1.11-1.572-1.166-2.582-2.435-4.053-3.715-.674-.594-1.302 1.337-2.155.933-1.953-.954-2.74-3.065-4.255-4.58-1.75-1.74-3.435-3.772-5.85-4.423-.403-.1-.18.483-.56.775-1.84 1.448-3.884-1.022-5.67-1.84-1.638-.753-3.086-1.966-4.938-2.1-.393-.034-.37.573-.236.74 10.54 12.462 25.18 21.824 41.243 21.454.37-.012 1.145.033.516-.742-.53-.607-1.08-1.954-1.707-2.134zm14.92-9.093c-.472-.066-1.19.574-1.606.495-1.246-.236-2.234-1.358-3.75-2.144-.628-.325-.942 1.146-1.436 1.112-2.514-.146-6.128-2.795-8.362-4.142-.393-.236-2.795.236-3.188.314-1.437.292-3.267-2.223-4.4-2.762-.854-.393-2.055-.82-2.864-.213-1.11.818-2.425.38-3.626.358-.47-.01-.887.988-1.46 1.167-1.65.528-3.48-.617-5.096.19-.045.023-.258.36-.247.484.112 1.01 1.235 1.178 1.987 1.638 11.596 7.342 29.49 9.722 39.46 7.5.235-.068-.124-.922-.787-1.438-.696-.54-1.718-.73-2.155-1.044-1.022-.684-1.55-1.37-2.47-1.515zm23.326-10.697c-1.225.37-2.168-.528-3.19-.146-.235.1-.392.483-.594.483-1.92.034-3.2-2.032-5.153-1.875-.494.045-.483.898-.887.988-1.2.28-2.28-1.167-3.368-.65-.763.37-1.313.347-2.066.134-.965-.28-1.673-1.145-2.604-1.28-.808-.135-1.64.685-2.56.415-2.3-.685-4.085-2.863-6.566-2.346-1.212.258-2.268-.573-3.11-.067-.932.55-1.19 1.21-2.122 1.773-.64.382-2.122.326-2.784.73-.516.303-.64 1.09-1.212 1.325-1.09.45-2.357.135-3.38.696-.122.067-.19.64.248.752 9.452 3.2 24.742 6.736 43.018 1.987.55-.18.674-.505.225-1.033-1.01-1.135-2.39-2.325-3.896-1.887zm21.867-16.008c-1.617.752-3.49-.08-5.276.337-.46.112-.11.786-.572.853-1.75.236-3.57-.202-5.22.438-1.29.505-2.84-.067-4.255-.045-.54.022-.55.74-.63 1.336-.078.483-.807.786-1.043.718-1.75-.528-3.435-.696-5.21-.965-4.467-.662-8.89-2.088-13.088-.83-1.37.426-3.188.75-4.232 1.83-.404.414-.83 1.234-1.37 1.425-2.57.943-5.377 1.123-7.925 2.032-.775.27-2.245 1.358-1.695 1.504 0 0 7.903 2.29 16.525 2.29 16.592 0 29.232-4.086 38.482-9.127-.538-.695-3.266-2.357-4.49-1.795zm18.21-18.164c-1.023.338-2.415-.628-3.28.012-1.3.954-2.828.786-4.153.65-.64-.066-1.64-.29-2.2.147-.36.28.168.74.505 1.054-3.37 1.156-7.073.067-10.26 1.358-.237.1-.383 1.27-.966 1.392-2.93.584-5.658-.56-8.565-.034-.73.135-.405 1.695-1.168 1.73-2.604.134-5.14-.09-7.735-.203-3.087-.135-5.938.988-8.857 1.886-.876.258-1.134 1.64-2.066 1.785-2.526.382-5.085-.067-7.387 1.078-.168.08-.168.842 0 .943 2.818 1.593 6.05 2.682 7.982 5.264 19.61-.202 40.727-2.773 57.06-16.165.314-.26-1.617-.663-2.65-.91-1.02-.236-1.85-.236-3.086-.64-1.102-.348-2.112.303-3.178.65zm20.362-18.454c-.203-.123-3.167-.65-4.817-.27-.348.08-.56.652-.887.708-2.11.337-3.615 1.358-5.77 1.414-.45.01-1.414.326-1.998.606-.786.37-1.852-.54-2.47.146-.393.438.292 1.504-.415 1.84-1.886.888-4.075-.695-5.905.495-.54.348.573 1.515-.123 1.73-2.638.83-7.218-3.28-8.936.987-.27.662-1.1.36-1.618.236-.505-.135-1.2-.36-1.504-.112-1.628 1.313-2.57 1.84-4.85 1.2-.584-.167-.595 1.55-1.706 1.28-1.27-.302-2.503-1.234-3.67-.706-.54.236-.147 1.66-.933 1.74-3.178.303-6.456-.157-9.386 1.156-.718.314-.786 1.628-1.796 1.785-2.234.37-4.457.113-6.545.787-.326.1-.258 1.1.247 1.167 1.336.202 2.85-.01 3.884.606 1.257.752 2.066 2.863 3.29 2.92 25.2.482 43.398-8.544 55.893-18.95.506-.44.26-.618.012-.764zm-6.186-14.785c-.37.18-.247 1.415-.977 1.752-1.235.573-2.65.55-3.974.954-.494.157-.47.82-.887 1.078-.696.45-1.65.08-2.167.46-3.19 2.335-6.972 1.29-10.508 1.875.056 2.66-4.142 1.032-5.87 2.188-1.876 1.27-1.63.92-4.435.943-.864.012-.393 1.292-1.1 1.314-2.234.034-5.12-.674-6.78-.18-.303.09-.393 1.493-.988 1.65-1.213.326-2.504.46-3.66.83-.9.282.268 1.988-.933 2.37-2.054.65-4.31.18-6.365 1.347-.82.472-2.01.023-3.053.226-.9.168-1.247 1.11-.517 1.515.674.37 1.774.27 2.425.596 1.527.752 2.773 1.83 4.412 1.93 26.617 1.64 61.046-17.276 66.468-40.2.19-.92-.236-.75-.427-.235-5.792 13.754-20.666 19.59-20.666 19.59z" fill="#CE1126"/></svg>