<svg xmlns="http://www.w3.org/2000/svg" viewBox="0 0 239 239"><title>Buffalo Sabres light logo</title><path d="M239 119.5C239 53.61 185.39 0 119.5 0S0 53.61 0 119.5 53.61 239 119.5 239 239 185.39 239 119.5z" fill="#ADAFAA"/><path d="M119.5 1.494C54.432 1.494 1.494 54.432 1.494 119.5S54.432 237.506 119.5 237.506 237.506 184.568 237.506 119.5 184.568 1.494 119.5 1.494z" fill="#002654"/><path d="M119.5 12.876c-58.794 0-106.624 47.83-106.624 106.624S60.706 226.124 119.5 226.124s106.624-47.83 106.624-106.624S178.294 12.876 119.5 12.876z" fill="#ADAFAA"/><g fill="#FFF"><path d="M209.035 208.05c-3.092 0-5.602 2.494-5.602 5.586s2.51 5.587 5.602 5.587 5.587-2.51 5.587-5.587-2.51-5.587-5.587-5.587zm0 9.993a4.4 4.4 0 0 1-4.392-4.392 4.389 4.389 0 0 1 4.392-4.39c2.435 0 4.392 1.97 4.392 4.39s-1.972 4.393-4.392 4.393z"/><path d="M211.32 212.352a1.89 1.89 0 0 0-1.896-1.897h-2.69v6.393h1.21v-2.6h.852l1.21 2.6h1.33l-1.27-2.704a1.913 1.913 0 0 0 1.255-1.792zm-1.896.687h-1.494v-1.39h1.494c.388 0 .702.314.702.702a.699.699 0 0 1-.702.687z"/></g><g fill="#002654"><path d="M119.5 151.048c32.982-25.005 58.6-48.726 73.956-63.828-.18 0-.344.015-.523.015-9.022 0-11.1-10.322-13.892-10.322-1.134.105-5.377 1.45-7.946 2.57 1.688.582 3.286-.016 5.273 1.27 2.584-.24 4.526 1.015 4.526 4.21 0 3.183-.702 7.41-6.767 7.41-8.29 0-8.5-8.126-14.146-8.126-1.718 0-7.678 2.6-12.682 2.6-6.378 0-10.44-4.617-15.85-4.617-2.075 0-2.613 1.807-2.613 2.748 0 2.435 2.973 3.27 2.973 5.9 0 .837-.344 1.778-1.42 2.405.748.538 1.42 1.24 1.42 2.375 0 .448-.15.837-.314 1.21 1.165-.91 2.196-1.598 3.376-1.598 3.794 0 5.482 6.438 5.482 8.888 0 3.988-3.764 4.362-7.08 4.362-3.092 0-9.89 2.868-12.682 2.868-2.808 0-6.976-2.375-7.44-5.392-1.104 1.464-3.24 2.45-5.9 2.45-2.927 0-8.543-3.24-11.815-3.24-2.524.238-7.095-.106-7.095-6.096 0-.358.06-.672.134-.97-3.704 1.94-8.828.313-8.828.313-6.304 3.122-7.2-.36-7.185-1.688-1.328 1-2.972 2.943-5.197 2.943-3.66 0-4.57-3.63-6.707-5.63-.85-.882-3.107-1.75-4.287-3.063-2.018-2.017-3.93-5.377-10.756-10.845-1.897-1.51-3.51-6.916-3.51-11.8 0-9.068 1.374-18.27 17.82-22.452C76.63 41.676 73.447 20.196 104.8 20.196c8.83 0 16.104 1.673 23.438 4.332-2.002-1.016-2.898-2.12-2.495-3.57.373-1.36 1.48-3.944 27.216 3.137 15.55 4.272 27.753 8.35 26.633 12.458-1.344 4.87-10.576-.508-29.472-5.69-7.557-2.077-13.667-3.466-17.894-4.796 13.115 5.303 27.35 13.31 51.684 20.27 8.53 2.196 13.996 2.39 13.996 6.84 0 .987-.418 1.63-.94 2.137 4.87-.33 6.616 6.035-3.87 6.035-5.945 0-10.247-2.316-10.247-5.483 0-1.598.835-2.584 1.91-3.227-2.42-.687-5.42-1.33-8.006-1.54.373 1.3.822 2.974.822 5.08 0 4.048-.926 5.93-1.27 8.245 1.778-.33 3.6-1.195 4.99-1.195 6.02 0 2.598 8.828 10.037 9.74 2.868.537 2.778 2.598 2.778 2.598 2.794-.523 4.72-.314 4.72 5.303 0 .36-.014.703-.044 1.032 6.886-6.96 10.635-11.084 10.755-11.233.748-.793 1.63-1.106 2.45-1.062C194.218 36.746 159.43 14.37 119.5 14.37S44.783 36.746 26.992 69.594c.807-.03 1.688.284 2.435 1.076.388.418 34.97 38.583 90.073 80.378zm8.425-35.85c31.384-11.606 43.393-17.835 45.007-13.474 1.583 4.302-15.147 13.25-40.974 22.795-15.46 5.72-18.21 2.598-19.015.417-1.016-2.748-.135-4.152 14.982-9.74zm86.772-40.257c-.09 2.72-.896 6.962-4.496 10.696-.402.448-34.22 37.777-80.408 73.074a707.156 707.156 0 0 0 8.186 5.9c.06-.344.164-.702.403-1.06 1.032-1.644 3.915-2.272 6.56-.613 4.062 2.57 4.196 6.423 3.42 10.845.12.015.254.015.373.045 1.046.18 1.867.866 2.435 1.837 0 0 1.374-.15 2.6 1.807 0 0 1.448-.133 2.613 1.808 0 0 1.375-.194 2.615 1.807 0 0 1.434-.12 2.614 1.807 0 0 1.433-.15 2.613 1.807 0 0 1.404-.15 2.614 1.806 0 0 1.42-.134 2.614 1.807 0 0 1.36-.164 2.615 1.807.06.015.12-.03.18-.015 1.777.314 2.957 1.897 3.226 4.078 2.36-2.15 4.706-3.39 7.74-1.48 2.12 1.345 3.972 4.557 2.494 8.41 23.736-19.298 38.927-48.71 38.927-81.603-.015-15.933-3.57-31.035-9.933-44.57zm-49.503 123.22s-1.45.135-2.614-1.806c0 0-1.374.18-2.614-1.807 0 0-1.42.12-2.614-1.807 0 0-1.434.134-2.614-1.807 0 0-1.404.15-2.614-1.792 0 0-1.42.135-2.614-1.806 0 0-1.36.164-2.614-1.792-.06-.015-.12.015-.18.015-.12-.03-.238-.06-.372-.09-.194 5.094 1.374 10.172 8.14 14.445 6.185 3.9 10.457 3.092 13.863.837a4.276 4.276 0 0 1-.568-.763c.013-.02-1.36.13-2.586-1.826z"/><path d="M108.52 90.79c-3.465 0-4.854 2.734-4.898 3.3 0 .613.523 1.375.597 2.242 0 0 1.373-1.404 2.942-1.404 3.032 0 5.676 4.944 6.513 7.633.3-1.27.612-2.942.612-5.137 0-4.108-2.988-6.633-5.766-6.633zM55.793 192.694c3.032-1.912 5.378-.672 7.738 1.48.254-2.182 1.434-3.78 3.226-4.08.06-.014.12.03.18.016 1.24-1.972 2.613-1.807 2.613-1.807 1.194-1.942 2.613-1.807 2.613-1.807 1.21-1.957 2.614-1.807 2.614-1.807 1.18-1.958 2.614-1.808 2.614-1.808 1.18-1.927 2.615-1.807 2.615-1.807 1.24-1.987 2.614-1.807 2.614-1.807 1.164-1.942 2.613-1.807 2.613-1.807 1.24-1.956 2.6-1.806 2.6-1.806.582-.97 1.403-1.658 2.434-1.837.12-.03.254-.03.373-.045-.777-4.42-.642-8.275 3.42-10.845 2.645-1.658 5.513-1.03 6.56.612.223.358.343.716.402 1.06a917.292 917.292 0 0 0 8.186-5.9c-46.202-35.286-80.02-72.6-80.423-73.048-3.6-3.734-4.407-7.977-4.496-10.695-6.35 13.518-9.92 28.62-9.92 44.544 0 32.908 15.19 62.32 38.927 81.605-1.464-3.855.373-7.067 2.495-8.41zm33.7-5.378c-1.196 1.942-2.615 1.807-2.615 1.807-1.21 1.942-2.614 1.792-2.614 1.792-1.18 1.957-2.614 1.807-2.614 1.807-1.18 1.927-2.615 1.807-2.615 1.807-1.225 1.986-2.614 1.806-2.614 1.806-1.164 1.942-2.613 1.807-2.613 1.807-1.225 1.957-2.6 1.807-2.6 1.807a4.148 4.148 0 0 1-.567.762c3.42 2.256 7.678 3.062 13.877-.837 6.767-4.272 8.32-9.35 8.14-14.445-.12.03-.238.06-.372.09-.06 0-.12-.03-.18-.015-1.255 1.99-2.614 1.81-2.614 1.81z"/><path d="M149.15 206.54c-12.382-7.81-12.382-18.73-10.963-27.17-5.84-3.9-13.503-9.187-18.687-12.966-5.183 3.764-12.846 9.067-18.687 12.966 1.42 8.44 1.404 19.36-10.964 27.17-15.163 9.56-24.41.3-27.456-2.195-.762.553-1.852 1.12-3.062 1.3 17.06 11.95 37.807 18.97 60.168 18.97s43.11-7.02 60.168-18.97c-1.21-.18-2.3-.762-3.062-1.3-3.047 2.495-12.28 11.756-27.455 2.196zM88.685 85.145c-1.957 0-2.554 1.867-2.554 2.48 0 4.422 3.376 2.644 5.377 5.348.717-1.852-1.12-2.63-1.12-4.66 0-.583.24-1.06.24-1.464.014-1.077-.942-1.704-1.943-1.704z"/><path d="M131.45 81.11c5.766 0 9.784 4.617 15.85 4.617 5.093 0 10.62-2.6 12.68-2.6 6.44 0 6.35 8.127 14.147 8.127 4.003 0 5.646-1.822 5.646-6.274 0-2.973-1.792-3.062-3.406-3.062-.612 0-1.42-.956-3.27-.956-2.122 0-3.9-.91-4.378-1.464 1.567-1.21 8.932-3.69 10.26-3.69 4.17 0 5.11 10.307 13.968 10.307 2.36 0 4.795-.627 4.795-5.243 0-3.555-.687-4.646-2.45-4.377-1.33.284-2.54.433-2.54.433.673-1.314.42-2.45-1.567-2.853-8.29-1.285-5.02-9.724-9.86-9.724-1.672 0-6.198 2.3-6.198.673 0-1.718 1.36-4.422 1.36-8.858 0-2.943-1.166-6.29-1.166-6.29 4.227.016 10.247 1.6 12.966 2.75-1.733.314-4.257.926-4.257 3.227 0 2.435 4.004 4.347 9.113 4.347 8.305 0 7.41-3.75 4.362-3.75-3.152 0-4.302-.27-4.75-.508 1.45-.538 4.048-.597 4.048-2.763 0-3.646-4.84-3.466-13.16-5.752-37.21-10.217-53.312-26.08-78.81-26.08-30.98 0-26.992 21.195-44.708 25.69C44.44 51 43.14 59.393 43.14 68.37c0 4.84 1.614 9.754 3.078 10.92 3.66 3.12 6.184 5.182 10.86 10.933.836.956 3.27 2.017 4.287 3.032 2.12 2.12 2.987 5.303 5.9 5.303 2.584 0 4.42-3.645 7.917-4.6-.836.806-1.598 1.747-1.598 2.867 0 2.57 2.928 1.912 5.975.478 6.81 1.778 9.23-.134 11.068-2.375.36-.433.284-1.076-.105-1.48-2.21-2.045-5.497-.88-5.497-5.825 0-.97.866-3.615 3.675-3.615 1.6 0 3.69 1.3 2.944 3.764-.478 1.553 1.15 2.66 1.15 3.854 0 4.422-3.33 4.705-3.33 7.5 0 5.048 3.718 5.167 5.884 4.973 3.466 0 9.366 3.24 11.89 3.24 3.182 0 5.587-1.48 5.587-3.436 0-1.54-3.092-7.842-5.66-7.842-1.42 0-2.496 1.748-3.317 1.748-.598 0-.896-.21-.94-.284.776-1.24-.404-2.002-.404-3.436 0-1.03 1.882-4.436 6.02-4.436 3.316 0 6.886 2.973 6.886 7.753 0 4.242-1.24 7.08-1.24 8.08 0 2.555 3.988 4.78 6.393 4.78 2.614 0 9.187-2.852 12.682-2.852 3.72 0 5.945-.583 5.945-3.227 0-2.36-1.643-7.768-4.347-7.768-2.36 0-5.855 5.348-10.307 5.348.21-.583.986-1.688 1.33-1.897 2.852-1.403 4.794-2.583 4.794-4.196 0-1.404-1.912-1.897-2.958-2.778 1.942-.18 2.958-.627 2.958-2.017 0-2.003-2.973-2.87-2.973-5.9.014-1.913 1.298-3.87 3.763-3.87zm51.146 112.54c-3.167-2.002-5.602.314-8.41 3.226.03-.134.06-.27.09-.418.463-2.704-.493-4.96-2.226-5.258-.21-.045-.418.03-.627.06-.91-2.39-2.6-1.792-2.6-1.792-.865-2.375-2.613-1.807-2.613-1.807-.926-2.374-2.614-1.806-2.614-1.806-.85-2.375-2.614-1.807-2.614-1.807-.956-2.42-2.614-1.807-2.614-1.807-.88-2.375-2.614-1.807-2.614-1.807-.85-2.36-2.614-1.807-2.614-1.807-.926-2.45-2.63-1.807-2.63-1.807-.387-1.032-1.075-1.734-1.97-1.883-.584-.105-1.166.045-1.674.373.956-4.84 1.344-8.977-2.524-11.427-2.03-1.285-4.257-.896-4.99.254-.895 1.42.852 2.644 1.525 3.51 2.614 3.316-11.158 25.26 8.873 37.896 15.28 9.635 23.586-.224 26.798-2.66 1.554 1.226 4.78 3.302 7.304-.686 1.985-3.095 1.463-6.83-1.256-8.547zm-12.294 7.005c-3.81 3.152-8.723 5.05-16.416.194-8.11-5.125-9.172-11.413-8.514-17.448.388.553.91.91 1.54 1.016.208.045.417-.03.626-.06.91 2.39 2.6 1.792 2.6 1.792.865 2.375 2.613 1.807 2.613 1.807.927 2.375 2.615 1.807 2.615 1.807.85 2.375 2.614 1.807 2.614 1.807.955 2.42 2.613 1.808 2.613 1.808.88 2.375 2.614 1.807 2.614 1.807.85 2.36 2.614 1.807 2.614 1.807.927 2.435 2.63 1.807 2.63 1.807.374.974 1.016 1.66 1.852 1.855zm-81.065 4.93c20.03-12.637 6.26-34.58 8.873-37.896.687-.867 2.42-2.092 1.524-3.51-.717-1.15-2.958-1.54-4.99-.255-3.868 2.45-3.494 6.572-2.523 11.427-.522-.33-1.104-.478-1.687-.373-.896.148-1.568.85-1.972 1.88 0 0-1.702-.64-2.628 1.808 0 0-1.763-.568-2.614 1.807 0 0-1.733-.568-2.614 1.807 0 0-1.658-.612-2.614 1.807 0 0-1.763-.57-2.614 1.806 0 0-1.688-.568-2.614 1.807 0 0-1.748-.568-2.614 1.807 0 0-1.688-.598-2.6 1.792-.208-.03-.417-.09-.626-.06-1.718.3-2.674 2.554-2.21 5.258.014.15.06.284.074.418-2.808-2.913-5.243-5.228-8.41-3.226-2.72 1.703-3.24 5.452-1.27 8.574 2.51 3.988 5.75 1.912 7.304.687 3.255 2.408 11.546 12.266 26.827 2.632zm4.376-22.182c.657 6.035-.388 12.338-8.5 17.447-7.677 4.855-12.606 2.958-16.415-.194.836-.194 1.48-.88 1.852-1.867 0 0 1.703.64 2.63-1.808 0 0 1.762.553 2.613-1.807 0 0 1.733.568 2.614-1.807 0 0 1.658.612 2.614-1.807 0 0 1.764.57 2.615-1.806 0 0 1.688.568 2.614-1.807 0 0 1.762.568 2.613-1.807 0 0 1.688.597 2.6-1.792.208.03.417.09.626.06.612-.094 1.135-.453 1.523-1.005z"/><path d="M111.09 158.74a853.767 853.767 0 0 1-13.115 9.412l1.927 10.426A533.845 533.845 0 0 0 119.5 165c5.9 4.302 13.4 9.5 19.598 13.578l1.942-10.426a860.658 860.658 0 0 1-13.115-9.41c46.71-35.507 81.05-73.404 81.454-73.852 5.377-5.602 4.092-12.368 4.032-12.592-.164-1.464-1.733-2.21-2.988-.88-.403.432-35.327 38.986-90.925 81.05-55.613-42.064-90.522-80.618-90.91-81.05-1.27-1.33-2.824-.584-3.003.88-.045.24-1.33 6.99 4.048 12.592.404.448 34.746 38.344 81.455 73.85z"/><path d="M131.57 123.458c19.746-7.304 41.555-17.94 40.3-21.346-1.03-2.808-16.536 4.153-43.543 14.13-12.607 4.662-15.102 6.14-14.31 8.29.554 1.54 2.96 4.334 17.552-1.074zm46.948-87.22c.777-2.823-11.95-7.245-25.842-11.07-18.986-5.212-25.887-4.75-25.857-3.883.06 2.69 7.303 3.973 23.63 8.47 17.76 4.885 27.187 9.695 28.068 6.483z"/></g><g fill="#FCB514"><path d="M119.5 3.002C55.15 3.002 2.987 55.15 2.987 119.5S55.15 236.012 119.5 236.012s116.512-52.16 116.512-116.512S183.852 3.002 119.5 3.002zm0 224.616c-59.72 0-108.118-48.398-108.118-108.118 0-59.705 48.412-108.118 108.118-108.118 59.72 0 108.118 48.397 108.118 108.118 0 59.72-48.398 108.118-108.118 108.118z"/><path d="M147.104 183.313c.418.075.85-.12 1.24-.508.33 2.943 2.017 2.524 2.614 1.807.344 2.943 2.017 2.51 2.614 1.807.344 2.942 2.017 2.523 2.614 1.806.33 2.928 2.017 2.51 2.614 1.807.33 2.928 2.017 2.51 2.614 1.807.344 2.943 2.017 2.524 2.614 1.807.33 2.943 2.017 2.524 2.614 1.807.33 2.928 2.017 2.51 2.614 1.807.105 1.256.612 2.182 1.36 2.316 1.06.18 2.195-1.285 2.538-3.286.344-2.002-.224-3.764-1.285-3.943-.42-.075-.852.12-1.24.493-.345-2.943-2.018-2.524-2.615-1.807-.33-2.928-2.017-2.51-2.614-1.807-.328-2.928-2.016-2.51-2.613-1.807-.33-2.944-2.017-2.51-2.614-1.808-.33-2.928-2.017-2.51-2.614-1.807-.345-2.943-2.018-2.524-2.615-1.807-.33-2.943-2.017-2.524-2.614-1.807-.328-2.942-2.016-2.523-2.613-1.806-.105-1.255-.612-2.18-1.36-2.315-1.06-.18-2.195 1.3-2.538 3.285-.344 2 .24 3.764 1.284 3.958zm-78.72 16.252c.747-.134 1.255-1.06 1.374-2.315.598.717 2.285 1.135 2.614-1.807.597.717 2.27 1.135 2.614-1.807.597.717 2.285 1.12 2.614-1.807.598.716 2.285 1.134 2.614-1.808.598.717 2.285 1.135 2.614-1.807.597.702 2.285 1.135 2.614-1.807.597.717 2.27 1.135 2.614-1.807.597.718 2.285 1.136 2.614-1.806.388.373.837.568 1.24.508 1.06-.18 1.643-1.957 1.285-3.943-.344-2.003-1.48-3.467-2.54-3.287-.746.134-1.254 1.06-1.358 2.315-.597-.717-2.285-1.135-2.614 1.807-.598-.717-2.285-1.135-2.614 1.807-.6-.717-2.286-1.135-2.615 1.807-.597-.718-2.285-1.136-2.614 1.806-.596-.702-2.284-1.135-2.613 1.807-.598-.717-2.285-1.135-2.614 1.807-.598-.702-2.285-1.12-2.614 1.807-.598-.717-2.286-1.135-2.615 1.807-.388-.388-.822-.583-1.24-.493-1.06.18-1.628 1.943-1.285 3.944.328 1.986 1.463 3.45 2.524 3.27z"/><path d="M182 194.606c-6.573-4.153-11.01 18.373-28.71 7.2-19.524-12.31-.374-31.16-9.56-36.955-1.57-.985-3.093-.596-3.422-.09-.33.54.672 1.21 1.464 2.212 3.406 4.302-11.07 25.244 8.59 37.643 16.82 10.606 25.004-3.824 26.394-2.958 1.12.717 3.87 3.585 6.154-.045 2.03-3.227.672-6.005-.91-7.006zM97.227 166.97c.792-1 1.792-1.672 1.464-2.21-.33-.508-1.852-.896-3.42.09-9.173 5.796 9.977 24.632-9.546 36.955-17.7 11.173-22.137-11.353-28.71-7.2-1.583 1-2.958 3.78-.91 7.006 2.284 3.63 5.018.748 6.153.046 1.388-.866 9.574 13.563 26.394 2.958 19.643-12.398 5.168-33.34 8.574-37.643z"/></g><g fill="#FFF"><path d="M212.292 72.462c-.18-1.165-1.03-.284-1.03-.284s-35.044 38.927-91.762 81.708c-56.718-42.78-91.746-81.708-91.746-81.708s-.866-.88-1.046.284c0 0-1.27 6.438 3.764 11.666 0 0 34.76 38.598 82.5 74.628a756.206 756.206 0 0 1-13.757 9.904l1.494 8.02a483.348 483.348 0 0 0 18.79-13.07c6.094 4.452 12.368 8.844 18.79 13.07l1.495-8.02a745.32 745.32 0 0 1-13.757-9.904c47.725-36.03 82.5-74.628 82.5-74.628 5.033-5.228 3.764-11.666 3.764-11.666z"/><path d="M46.92 78.407c7.14 5.706 9.29 9.366 10.948 11.01 1.404 1.388 2.778 1.523 4.302 3.046 2.256 2.256 2.958 4.974 5.094 4.974 2.21 0 4.646-4.825 9.41-4.825 3.198 0-1.956 2.136-1.956 4.227 0 1.777 3.914-.658 4.765-.658 1.434 0 6.976 2.48 10.232-1.927-1.48-1.464-5.826-.866-5.826-6.632 0-1.583 1.343-4.75 4.81-4.75 2.792 0 4.9 2.45 4.017 5.243-.27.88 1.21 1.912 1.21 3.51 0 4.84-3.33 5.378-3.33 7.5 0 4.27 3.016 3.943 4.674 3.838 3.9 0 9.92 3.24 11.95 3.24 2.496 0 4.467-1.075 4.467-2.314s-2.913-6.707-4.526-6.707c-.925 0-1.91 1.748-3.315 1.748-1.554 0-2.45-.97-1.897-1.94.314-.554-.583-1.45-.583-2.9 0-1.762 2.435-5.57 7.155-5.57 3.93 0 8.02 3.405 8.02 8.887 0 4.556-1.24 7.185-1.24 8.08 0 1.69 3.213 3.66 5.26 3.66s9.708-2.867 12.173-2.867 5.318.18 5.318-2.09-1.567-6.633-3.225-6.633c-1.658 0-5.452 5.348-10.307 5.348-.583 0-1.225-.12-1.225-.926 0-.823 1.3-2.675 1.972-3.078s4.242-1.927 4.242-3.227c0-.732-3.27-1.643-3.27-3.077 0-1.48 3.27-.3 3.27-1.718 0-1.285-2.973-2.465-2.973-5.9 0-2.465 1.688-5.02 4.87-5.02 6.17 0 10.038 4.617 15.85 4.617 4.913 0 10.306-2.6 12.68-2.6 7.2 0 7.007 8.127 14.147 8.127 3.332 0 4.497-1.255 4.497-5.153 0-2.12-1.03-1.926-2.27-1.926s-1.42-.94-3.272-.94c-2.704 0-5.69-1.405-5.69-2.78 0-1.418 10.112-4.645 11.576-4.645 5.184 0 5.662 10.306 13.968 10.306 2.106 0 3.66-.448 3.66-4.108s-.583-3.33-1.255-3.24c-.672.09-4.018 1.03-4.018-.03 0-1.047 1.583-2.107-.33-2.42-8.812-1.465-6.243-9.71-9.68-9.71-1.642 0-7.333 3.092-7.333-.463 0-1.957 1.36-4.63 1.36-8.858 0-4.66-2.66-7.424-.09-7.424 5.616 0 15.43 2.853 15.43 4.227 0 .986-5.528.418-5.528 2.883 0 1.464 3.167 3.227 7.992 3.227s6.767-1.494 4.362-1.494c-2.405 0-6.094-.075-6.094-1.733 0-1.673 4.272-.926 4.272-2.674 0-2.585-4.362-2.39-12.338-4.66-39.734-11.31-53.55-26.037-78.497-26.037-30.696 0-25.78 20.927-44.423 25.648-14.743 3.765-16.103 11.294-16.103 20.27 0 5.033 1.704 9.29 2.645 10.037zm14.1 7.782c-1.643 0-1.225-1.15-1.225-1.15 2.136-2.884 1.046-9.755 3.69-9.755 1.494 0-.642 1.524-.642 3.3 0 2.003 2.943 1.42 2.943 3.75 0 1.494-2.406 3.854-4.766 3.854zm6.348 9.754s-1.225-.88-1.225-1.524c0-1.464 2.48-1.882 2.48-1.434 0 1.24-1.255 2.958-1.255 2.958zm2.002-26.56c0 1.017-2.076 3.452-3.39 3.452-1.002 0-2.6-3.9-2.6-4.227 0-.33.463-.987 1.927-.987 1.464.014 4.063.746 4.063 1.762zm-11.95-15.43c5.885 0 8.948 3.48 8.948 7.275 0 3.808-3.197 6.572-6.737 6.572-2.255 0-2.927-1.897-2.927-2.853 0-1.315 1.942-2.466 1.942-4.02 0-1.926-2.345-3.255-4.705-3.255-3.988 0-6.677 3.42-6.677 1.733-.016-2.018 4.017-5.454 10.157-5.454zm71.296 63.365c-10.098 3.733-14.206 5.287-13.638 6.84.314.85 2.405 3.316 16.103-1.748 13.654-5.064 40.556-17.387 39.615-19.897-.463-1.24-19.463 6.44-42.08 14.804zm22.033-88.655c16.654 4.586 26.26 8.813 26.677 7.275.418-1.54-12.816-6.32-25.05-9.68-12.22-3.36-24.916-5.02-24.512-4.646 1.285 1.24 6.214 2.48 22.884 7.05z"/></g><path d="M62.917 81.663c-.403 0-.777.672-.777.91 0 .255.627 1.12 1.105 1.12.27 0 .612-.118.612-.358-.014-.97-.044-1.672-.94-1.672z" fill="#CF0A2C"/></svg>