<svg id="Layer_1" xmlns="http://www.w3.org/2000/svg" viewBox="0 0 360 216"><style>.st0{fill:#fff}.st1{fill:#c2912c}.st2{fill:#c52032}</style><path class="st0" d="M221.3 80.1l-19.7-26.9-7.1 3.3c-1.1-.3-2.9-.9-5.5-1.4l1.6-1.6V39.6h-1.8c2.5-6.3-3.8-18.1 17.2-28.7h-49.6c-34.7 10.9-24.8 74.2-24.8 74.2l3.7-1.4s-1.4 4.5-.5 8.7c0 0-3.6 8.7.5 17.2l-2.5 3.5.6 18.7c-6.5 5.7-18.6 1.4-20.9 11.6-1.9 2.6-8.3 4.6-8.3 4.6-11.5 30.1 55.4 33.6 67.9 50.3 0 0 11.9 6.8 28.8 6.8 35.4 0 64.2-28.8 64.2-64.2 0-27.7-17.6-52-43.8-60.8zm-20.4 122.4c-9.7 0-18.9-2.2-27-6.2-10.8-15.7-76.1-20.6-67.6-46.1 0 0 8.2-2.8 8.8-6.2 1.4-8 16.9-4.1 21-11.3l-.6-18.8 2.9-4.1c-4.9-8.4-.9-17.1-.9-17.1-1.5-5.8 2.1-13.5 2.1-13.5l-5.9 2.2s-7.6-57.6 23.1-67.9h40.6c-15.7 10.7-7.1 19.9-12.6 28.7h3.1v10.1l-4.4 4.5c7.1.9 11.1 2.5 11.1 2.5l6.1-2.8 18.9 25.8c24.8 8 42.8 31.2 42.8 58.6 0 34-27.5 61.6-61.5 61.6z"/><path class="st0" d="M199.3 142.6l3.7-1.8-4.1-15.8 1.6-4.8 11.1-4.3 3.2 1.4-.5-5.1s-3.2-3.1-6.9-3.1c-3.6 0-5 2.6-10 8.6 0 0-2.8-7.5-14.4-7.5-9.8 0-21.6 4.6-21.6 4.6-2.1 2.8-1.8 8.8 12.3 7.8l-2 9.3 7.8 1.1s-10 22-4.5 27.3c5.2 5 10.5 10.4 12.4 10.4 7.3 0 11.9-1.9 12.8-2.8.4-.4.7-1.3.7-2.5 0-4.1-4-4.5-7.2-4.5-6.9 0-9.3 2.4-9.3 2.4l1.3-4.4c.9-3.2 14.7-1.5 14.7-1.5l-.3-4.3-2.7.4-5.8-.9-13.7.4-.7-.5 16.3-2.9 3.6.7 3.1-.8-1.7-1.5-1.8.7-.3-3.6-9.8-1.6 7.7-2.7 5 1.8zm-12.8-17.5l3.4-2.7-4.3-1.2c-2.8 4-6.9 1.5-7.4-1.1l-15.6-2.2 18.1-3 14.8 6-2.5 5.1-6.5-.9z"/><path class="st0" d="M213.4 121.7l-3.1.6c-1.3 5.2-4.9 3-5.5 1.8l-1.5 5.3 2.4 8 2.1 4.4-3.5 3 2.7 3.1.9 2.2 4-13.1 3.2-5.2c.6-.9-2.6-7.2-2.6-7.2l.9-2.9zM183.2 179.1l8.7 5.9 2.3-7.9-7.6-1.1z"/><g><path class="st1" d="M216.4 108.3l-17.7-10.1-35.4 12.1s13.1-3.4 22.8-3.4c10.5 0 12.3 5.7 12.3 5.7s3.2-5.9 8.1-5.9c5.9 0 10 3.4 10 3.4l-.1-1.8zM178.5 57.2l3-3.2H166l-12.9 10.4 11.4-13.3h18.7v-5.4h-20.3l-18.1 24.6.9 4.2c-.1 0 9.9-17.3 32.8-17.3z"/><path class="st1" d="M166.5 149.8c0-11.9 2.9-24.3 2.9-24.3s-17.7 1.2-14.6-13.7c0 0-3.9 3.1-7.4 1.8 0 0 6.7-1.8 6.7-9l1.7 5.3 46-18.4 18.1 15.7-.4-7.1c-2 .7-6.4-2.3-6.4-2.3l.7-.6s2.9 1.5 5.6.4l-.4-7L199.1 63l-4.5 1.7s-9.8-4.1-19.2-4.1c-14.5 0-32.5 14.3-32.5 30.1l9.7.7 26.5-19.6-26.6 26s-2.4-4.6-5.7-4.6c-2.3 0-5.9 2.8-5.9 9.6 0 5.4 2.6 8 2.6 8l-3.1 4.2c2.3 33.6-1.5 37-8.4 35.1l13.5 6.5c0-23.5-.9-30.7 1.4-30.7 3.8 0 3.4 23.4 4.4 34.4 0 0 9.7 11.3 29.1 13.1-.1 0-13.9-8.8-13.9-23.6zm-4.3-69l-11 7.2-5.8-.3s-.6-12.4 17.2-21.2c-20.8 15.5-8.2 16.5-.4 14.3zm50 4.6c5.1 5.3 2.9 7.5 4.5 10l-.3.5c-1.9-1.7-2 2.5-7.6-3.6l.5-.3c3.6 3.1 3.9.6 5.2 1.3-.9-1.5.4-3.6-2.4-7.3l.1-.6zm-6.9.1c2.4 2.9 3.1 1.4 3.9 1.6-.4-.9 1.2-1.8-.7-6l.2-.8c4.4 6.3 1.2 6.9 2.8 9.7l-.2.3c-1.6-2.3-2.4 1.6-6.3-4.6l.3-.2zm-9.6-14.4c-2.7 2.9-1.9 17 7.7 14.3-5.3 8.6-18.3-7.5-7.7-14.3zm-10 7.4l.1.8c-3.4 4.3-1 4.6-1.6 5.8.8-.2 1.1 1.9 6.3-.9l.5.2c-8 6.1-7.5 1.4-10.3 3.7l-.4-.1c3.3-2.8-1.9-3 5.4-9.5zm-6 4.6l.1.4c-4.5 4.3-2.5 5.7-3.2 6.9 1.3-.4 1.3 2.6 8-.5l.7.3c-9.1 6.1-9.3 1.2-12 2.9l-.2-.3c2.5-2.4-1.2-4.5 6.6-9.7zm-9.6 5.6l.2.3c-2.4 2.4-1.6 4.1-2.4 5 2.3 0 .7 3.2 10 1.4l1.4.9c-12.3 4.6-10.6-1.2-15.3.4l-.1-.3c3.8-2.2.4-4.3 6.2-7.7zM160 94l.2.3c-1.3 1.3.5 2.3-1.2 3.5 1.8-.1 1.1 2 6.3 1.4 1 .4 1.8 1.1 1.8 1.1-9.3 2.9-9-1.4-11.6-.6l-.1-.3c2.7-1-.1-2.7 4.6-5.4zm-17.3 13s1.2 2.5 3.2 2.5 6.9-4.8 4.1-11.6c5.9 6.8.2 14-2.8 14-3-.1-4.5-4.9-4.5-4.9zM210.3 154.9l-2.2 6 3.5.5zM225.6 90.5v20c8.9 7.2 14.5 18.2 14.5 30.5 0 17-10.9 31.5-26 37-6.4 10.5-4.6 16.6-3.8 18.4 26.5-4.5 46.8-27.6 46.8-55.4-.1-22.2-12.9-41.4-31.5-50.5zm24.3 35.4c1.7 8-2.1 6.1-1.4 9.5-.7-3.4-3.4-.2-5.1-8.1 1.2-.3 2.3 2.4 3.9 2.1 1.4-.3 1.4-3.3 2.6-3.5zm-3.2-7.9c3 7.6-1.1 6.4.2 9.6-1.3-3.2-3.4.4-6.4-7.2 1.1-.4 2.7 2 4.1 1.4 1.5-.5 1-3.3 2.1-3.8zm-20.6-17.8s9.5 3.2 7.5 5.8c-1.9 2.5-7.5-5.8-7.5-5.8zm5.6 8.5c.9-.8 3.2 1 4.4 0 1.2-1-.2-3.5.7-4.3 5.3 6.2 1.1 6.4 3.3 9-2.3-2.7-3.1 1.4-8.4-4.7zm4.9 5.5c1-.6 3 1.5 4.3.7 1.4-.8.3-3.5 1.4-4.2 4.2 7 0 6.5 1.8 9.4-1.8-2.9-3.3 1.1-7.5-5.9zm-26 73.7s8.1-5.9 9.1-2.8c.9 3-9.1 2.8-9.1 2.8zm10.7 0c-.6-1.1 1.7-2.9.9-4.3-.8-1.4-3.5-.5-4.1-1.6 7.1-3.9 6.5.3 9.5-1.4-3.1 1.8.8 3.5-6.3 7.3zm8.6-4.7c-.8-.9 1.1-3.2.1-4.4-1-1.2-3.5.2-4.3-.8 6.3-5.2 6.4-.9 9.1-3.2-2.8 2.3 1.3 3.2-4.9 8.4zm6.9-5.7c-.9-.8.5-3.3-.7-4.3s-3.5.8-4.4 0c5.3-6.2 6.1-2 8.4-4.7-2.3 2.6 1.9 2.8-3.3 9zm5.8-6.8c-1-.6-.1-3.3-1.4-4.2-1.4-.8-3.3 1.4-4.3.8 4.1-7 5.7-3.1 7.4-6.1-1.8 3 2.4 2.5-1.7 9.5zm4.5-7.7c-1.1-.4-.6-3.3-2.1-3.8-1.5-.6-3 1.9-4.1 1.5 2.8-7.6 5.1-4 6.3-7.3-1.3 3.3 2.8 2-.1 9.6zm3-7.9c-1.2-.2-1.2-3.1-2.7-3.4-1.6-.3-2.6 2.4-3.8 2.2 1.5-8 4.3-4.8 5-8.2-.7 3.3 3.1 1.4 1.5 9.4zm-1.5-11.3c-1.6 0-2.9-1.3-2.9-2.9 0-1.6 1.3-2.9 2.9-2.9 1.6 0 2.9 1.3 2.9 2.9 0 1.6-1.3 2.9-2.9 2.9z"/></g><g><path class="st2" d="M159.6 39.5l-3-19.5c-21.6 9.2-18.7 53.4-18.7 53.4l21.9-31.8H180c3.5-6.9-.8-18 7-22.7h-26.7l-.7 20.6zM152.9 171.7c8.8 2 20.6 9.5 20.6 9.5-.9-3.1-3.4-6.1-3.4-6.1-14.8-4.7-23.7-13.9-23.7-13.9l-22.6-12.4s13.5.1 12.3-9.9c-5.8 4.3-17.1 2.6-17.1 7.2 0 5.1 8.9 10.2 26.4 21.4L118.3 155l1.6-1.8-1.9-3.6c-.2 1.4-7.1 1.4-7.1 6.1 0 16.4 57.9 22.5 68.5 37.9 1.3-8.1-14.5-15.8-26.5-21.9zM223.4 141.9s5.8 5 5.8 6.8c0 1.7-12.3 9-12.3 9 4.1-5.7 7.4-8.4 7.4-10.9 0-2.4-4.3-3.1-5.5-7.7-4.4 7.1-4.7 11.7-4.7 11.7l2.2 14.9-5.9-.7c-12.4 12.4-11.1 26-11.1 26 7.8-22.6 34.2-22.9 34.2-44.3-1.7-1.5-10.1-4.8-10.1-4.8z"/></g><g><path d="M248.6 138c-1.6 0-2.9 1.3-2.9 2.9 0 1.6 1.3 2.9 2.9 2.9 1.6 0 2.9-1.3 2.9-2.9 0-1.6-1.3-2.9-2.9-2.9zM248.6 145.6c-.7 3.4-3.4.2-5 8.2 1.2.2 2.3-2.5 3.8-2.2 1.6.3 1.5 3.2 2.7 3.4 1.6-7.9-2.2-6-1.5-9.4zM247.2 129.4c-1.6.3-2.7-2.3-3.9-2.1 1.7 7.9 4.4 4.7 5.1 8.1-.7-3.4 3.1-1.6 1.4-9.5-1.1.2-1.1 3.2-2.6 3.5zM240.1 113.4c-2.3-2.6 2-2.8-3.3-9-.9.8.5 3.3-.7 4.3s-3.5-.8-4.4 0c5.3 6.1 6.1 2 8.4 4.7z"/><path d="M240.5 120.5c3 7.6 5.1 3.9 6.4 7.2-1.3-3.2 2.8-2-.2-9.6-1.1.4-.6 3.3-2.1 3.9-1.4.5-3-2-4.1-1.5z"/><path d="M244.1 120.2c-1.8-3 2.4-2.5-1.8-9.4-1 .6 0 3.3-1.4 4.2-1.4.8-3.3-1.4-4.3-.7 4.2 6.9 5.7 2.9 7.5 5.9zM244.3 161.3c-1.8 3-3.3-.9-7.4 6.1 1 .6 3-1.6 4.3-.8 1.4.8.4 3.5 1.4 4.2 4.1-7.1-.1-6.6 1.7-9.5zM210.6 187.9s10 .2 9.1-2.8c-1-3.1-9.1 2.8-9.1 2.8z"/><path d="M247.1 153.4c-1.2 3.3-3.4-.3-6.3 7.3 1.1.4 2.6-2.1 4.1-1.5 1.5.6 1 3.4 2.1 3.8 3-7.6-1.1-6.3.1-9.6zM162.7 117.9l15.6 2.2c.5 2.6 4.6 5.1 7.4 1.1l4.3 1.2-3.4 2.7 6.6.9 2.6-5.1-14.8-6-18.3 3zM218.1 182.1c.6 1.1 3.3.2 4.1 1.6.8 1.4-1.5 3.2-.9 4.3 7.1-3.9 3.3-5.6 6.3-7.2-3.1 1.6-2.4-2.6-9.5 1.3zM233.7 105.9c1.9-2.5-7.5-5.8-7.5-5.8s5.5 8.4 7.5 5.8zM225.6 178c.8.9 3.3-.5 4.3.8 1 1.2-.9 3.4-.1 4.4 6.3-5.2 2.1-6.1 4.8-8.3-2.6 2.2-2.7-2-9 3.1z"/><path d="M231.7 173.2c.9.8 3.2-1 4.4 0 1.2 1-.2 3.5.7 4.3 5.3-6.2 1.1-6.4 3.3-9-2.3 2.6-3.1-1.5-8.4 4.7z"/><path d="M262.4 140.9c0-27.4-18-50.7-42.8-58.6l-18.9-25.8-6.1 2.8s-4.1-1.6-11.1-2.5l4.4-4.5V42.2h-3.1c5.4-8.8-3.2-18 12.6-28.7h-40.6c-30.7 10.3-23.1 67.9-23.1 67.9l5.9-2.2s-3.7 7.7-2.1 13.5c0 0-4 8.8.9 17.1l-2.9 4.1.6 18.8c-4.1 7.1-19.6 3.2-21 11.3-.6 3.4-8.8 6.2-8.8 6.2-8.6 25.6 56.8 30.4 67.6 46.1 8.2 4 17.3 6.2 27 6.2 34 0 61.5-27.6 61.5-61.6zM137.9 73.4S135 29.2 156.6 20l3 19.5.7-20.7H187c-7.7 4.7-3.5 15.8-7 22.7h-20.2l-21.9 31.9zM166 54h15.4l-3 3.2c-22.8 0-32.8 17.3-32.8 17.3l-.9-4.2 18.1-24.6h20.3v5.4h-18.7L153 64.4 166 54zm13.5 139.6c-10.6-15.5-68.5-21.6-68.5-38 0-4.6 6.9-4.7 7.1-6.1l1.9 3.6-1.6 1.8 27.1 12.4c-17.6-11-26.5-16.2-26.5-21.3 0-4.6 11.2-3 17.1-7.2 1.2 10-12.3 9.9-12.3 9.9l22.6 12.4s8.9 9.2 23.7 13.9c0 0 2.5 3 3.4 6.1 0 0-11.8-7.5-20.6-9.5 12 6.2 27.8 13.9 26.6 22zm-28.2-33.4c-1-11-.6-34.4-4.4-34.4-2.3 0-1.4 7.2-1.4 30.7L132 150c6.9 1.9 10.7-1.5 8.4-35.1l3.1-4.2s-2.6-2.6-2.6-8c0-6.8 3.6-9.6 5.9-9.6 3.4 0 5.7 4.6 5.7 4.6l26.6-26-26.5 19.6-9.7-.7c0-15.8 18-30.1 32.5-30.1 9.5 0 19.2 4.1 19.2 4.1l4.5-1.7L219 90.6l.4 7c-2.6 1.1-5.6-.4-5.6-.4l-.7.6s4.4 3 6.4 2.3l.4 7.1-18.1-15.7-46 18.4-1.7-5.3c0 7.3-6.7 9-6.7 9 3.5 1.4 7.4-1.8 7.4-1.8-3.2 15 14.6 13.7 14.6 13.7s-2.9 12.4-2.9 24.3c0 14.8 13.8 23.6 13.8 23.6-19.3-1.9-29-13.2-29-13.2zm56.6-10.1l-.9-2.2-2.7-3.1 3.5-3-2.1-4.4-2.4-8 1.5-5.3c.6 1.3 4.2 3.4 5.5-1.8l3.1-.6-.9 2.9s3.2 6.3 2.6 7.2l-3.2 5.2-4 13.1zm3.7 11.3l-3.5-.6 2.3-6 1.2 6.6zm-8.6-20.6l-3.7 1.8-4.8-1.9-7.7 2.7 9.8 1.6.3 3.6 1.8-.7 1.7 1.5-3.1.8-3.6-.7-16.3 2.9.7.5 13.7-.4 5.8.9 2.7-.4.3 4.3s-13.8-1.7-14.7 1.5l-1.3 4.4s2.5-2.4 9.3-2.4c3.2 0 7.2.5 7.2 4.5 0 1.1-.3 2-.7 2.5-.9.9-5.5 2.8-12.8 2.8-1.8 0-7.2-5.4-12.4-10.4-5.5-5.3 4.5-27.3 4.5-27.3l-7.8-1.1 2-9.3c-14.1 1.1-14.4-4.9-12.3-7.8 0 0 11.8-4.6 21.6-4.6 11.6 0 14.4 7.5 14.4 7.5 4.9-6 6.4-8.6 10-8.6 3.7 0 6.9 3.1 6.9 3.1l.5 5.1-3.2-1.4-11.1 4.3-1.6 4.8 3.9 15.9zm3.5-34.2c-4.9 0-8.1 5.9-8.1 5.9s-1.8-5.7-12.3-5.7c-9.7 0-22.8 3.4-22.8 3.4l35.4-12.1 17.7 10.1.2 1.8c-.1 0-4.2-3.4-10.1-3.4zM191.9 185l-8.7-6 3.4-3.1 7.6 1.1-2.3 8zm7.6 6s-1.4-13.6 11.1-26l5.9.7-2.2-14.9s.2-4.6 4.7-11.7c1.2 4.6 5.5 5.3 5.5 7.7 0 2.5-3.3 5.2-7.4 10.9 0 0 12.3-7.2 12.3-9 0-1.7-5.8-6.8-5.8-6.8s8.3 3.3 10.3 4.9c-.2 21.3-26.6 21.6-34.4 44.2zm10.8 5.3c-.8-1.8-2.6-8 3.8-18.4 15.2-5.4 26-20 26-37 0-12.3-5.7-23.3-14.5-30.5v-20c18.6 9.2 31.5 28.3 31.5 50.4-.1 27.9-20.3 51-46.8 55.5z"/><path d="M203.4 85.5c-9.6 2.6-10.4-11.4-7.7-14.3-10.6 6.7 2.4 22.8 7.7 14.3zM211.2 90.3l.2-.3c-1.6-2.8 1.6-3.4-2.8-9.7l-.2.8c2 4.1.3 5 .7 6-.7-.2-1.4 1.3-3.9-1.6l-.4.1c4 6.3 4.8 2.4 6.4 4.7zM150.1 97.8c2.7 6.8-2.2 11.6-4.1 11.6-2 0-3.2-2.5-3.2-2.5s1.5 4.9 4.5 4.9c2.9 0 8.7-7.2 2.8-14zM179.2 96.2l-1.4-.9c-9.3 1.8-7.7-1.4-10-1.4.9-.9.1-2.6 2.4-5l-.2-.3c-5.8 3.4-2.4 5.5-6.4 7.6l.1.3c4.9-1.5 3.2 4.3 15.5-.3zM167.2 100.4s-.8-.8-1.8-1.1c-5.3.5-4.5-1.5-6.3-1.4 1.6-1.3-.1-2.3 1.2-3.5l-.3-.4c-4.7 2.6-1.9 4.3-4.6 5.5l.1.3c2.7-.8 2.4 3.6 11.7.6z"/><path d="M185.4 90.3l-.7-.3c-6.7 3.1-6.7.1-8 .5.7-1.2-1.3-2.6 3.2-6.9l-.1-.4c-7.9 5.2-4.1 7.3-6.6 9.8l.2.3c2.7-1.8 2.9 3 12-3z"/><path d="M191.1 84.3l-.5-.2c-5.2 2.8-5.6.6-6.3.9.5-1.1-1.8-1.4 1.6-5.8l-.1-.8c-7.3 6.5-2.1 6.7-5.2 9.4l.4.1c2.6-2.2 2.1 2.5 10.1-3.6zM209.3 92l-.5.3c5.6 6 5.6 1.8 7.6 3.6l.3-.5c-1.6-2.4.6-4.7-4.5-10v.5c2.9 3.7 1.6 5.7 2.4 7.3-1.4-.6-1.6 1.9-5.3-1.2zM162.6 66.5c-17.9 8.9-17.2 21.2-17.2 21.2l5.8.3 11-7.2c-7.8 2.2-20.4 1.2.4-14.3z"/></g><g><path d="M251.1 193.9c2.6 0 4.6 2.1 4.6 4.6 0 2.6-2.1 4.6-4.6 4.6-2.6 0-4.6-2.1-4.6-4.6 0-2.5 2.1-4.6 4.6-4.6zm3.8 4.7c0-2.1-1.7-3.9-3.8-3.9-2.1 0-3.8 1.7-3.8 3.9 0 2.1 1.7 3.9 3.8 3.9 2.1 0 3.8-1.8 3.8-3.9zm-5.6-2.7h2.1c1.2 0 1.8.5 1.8 1.6 0 1-.6 1.4-1.5 1.5l1.5 2.3h-.8L251 199h-.9v2.3h-.8v-5.4zm1.7 2.4c.8 0 1.4 0 1.4-.8 0-.7-.6-.8-1.2-.8h-1.1v1.6h.9z"/></g><g><path d="M257.9 195.8h.5l-1.7 5.5h-.5l1.7-5.5zM258.8 195.9h1.1l1.1 4.2 1.1-4.2h1.1v5.3h-.7v-4.6l-1.2 4.6h-.7l-1.2-4.6v4.6h-.7v-5.3zM264 195.9h1.4c1.6 0 1.9 1.2 1.9 2.6 0 1.3-.3 2.6-1.8 2.6H264v-5.2zm.7 4.7h.7c1.1 0 1.3-1.2 1.3-2.1 0-1-.1-2.1-1.3-2.1h-.7v4.2z"/></g></svg>