<svg xmlns="http://www.w3.org/2000/svg" viewBox="0 0 212.824 177.954"><title>San Jose Sharks light logo</title><path d="M199.728 69.4l-2.885 5.15.485 2.988c-7.664 14.978-16.003 28.885-18.99 33.776-1.16-2.626-2.682-4.17-5.646-5.76 0 0 13.57-24.624 17.243-44.155-10.267 5.082-21.02 10.108-21.02 10.108l18.394-29.764s-35.366 7.743-63.35 10.537C93.8 7.845 66.38 0 66.38 0S85.383 31.105 88.9 52.845c-38.454-3.595-69.83-11.09-69.83-11.09L52.553 95.94C32.965 97.09 0 98.15 0 98.15c8.396 8.408 35.433 19.06 71.182 27.894l6.38 10.335c-21.02 15.845-33.698 37.675-33.698 37.675l2.12 3.9s10.435-.632 23.238-1.083c0 0 3.482-11.26 17.807-25.177L103.2 177.84l20.275-32.784 2.198-.248 1.217.733c-.327.328-.564.98-1.048 1.748 1.68 1.15 1.724 1.33 1.814 3.37 0 0 2.23.79 5.004-.124l.766-1.386.935.428c.135.98.394 2.062.394 2.062 2.58 1.206 4.756-.406 4.756-.406 6.875 1.42 11.54.62 13.085.237 6.807 1.87 11.225.608 13.04-.193 3.132 1.296 6.367 2.13 15.36 2.13 4.147 0 8.565-.26 8.565-3.358 0-4.34-4.147-20.276-8.35-29.09 0 0 3.087 2.176 5.87 2.728l3.844-2.784c-1.747-2.062-1.42-2.648-1.172-4.25-1.375-1.16-3.29-1.43-3.29-1.43 3.752-4.328 11.618-14.392 21.006-32.424 1.985-.304 4.51-1.454 4.825-4.576.327-3.38.53-4.846.53-8.07-5.94-2.714-13.097-.753-13.097-.753z" fill="#FFF"/><path d="M176.455 49.385l-16.973 27.127c1.848-.868 3.81-1.758 5.76-2.648l18.12-29.313s-30.81 6.74-58.885 9.58c.665 1.05 1.32 2.097 1.984 3.157 19.262-2.03 39.356-5.76 49.995-7.902z"/><path d="M179.17 121.063c-2.343-9.75-2.715-11.518-7.91-14.144l-.846-1.105c9.546-17.097 16.443-37.495 16.443-39.93 0-.597-.26-.766-.63-.586-15.182 7.696-31.85 14.56-35.547 17.14l-.98 1.365c-8.182-7.28-15.18-12.397-17.886-14.302C114.842 36.188 88.808 12.78 72.027 4.395c0 3.482 16.6 29.043 19.148 50.524-30.035-2.052-68.128-10.37-68.128-10.37l32.807 53.07c-26.958 1.658-50.59 2.22-50.59 2.22 0 1.872 30.08 16.252 74.494 26.305 9.726 2.198 16.95 1.848 21.684 1.848-.89-.97-1.77-1.916-2.648-2.84 6.435 3.922 12.318 7.833 17.604 11.36-1.33.01-2.784.023-4.373.023-10.684 0-18.753-.564-23.86-.947l-4.642-7.35a107.19 107.19 0 0 1-3.494-.686c-.452-.1-.903-.203-1.353-.293-2.03-.45-3.967-.923-5.297-1.24l6.717 10.854c-6.29 4.508-22.382 18.18-34.047 37.236l1.014 1.882s11.27-.7 20.793-.97c0 0 4.27-12.182 19.554-26.292l15.768 25.515 19.137-30.96c1.228-.134 2.49-.27 3.764-.427 1.318.823 2.602 1.612 3.83 2.31a4.346 4.346 0 0 0-1.644 1.645s1.104.755 1.172 2.243c0 0 .947.158 1.938-.135 0 0 .676-1.025 1.25-2.253a41.226 41.226 0 0 0 3.54 1.645c-.01 1.07.18 1.86.18 1.86s1.206.372 2.682-.935c8.475 1.938 13.547.293 13.547.293 8.61 2.547 12.983-.304 12.983-.304 3.37 1.476 6.187 2.31 15.417 2.31 5.015 0 6.672-.61 6.672-1.454.044-4.045-4.216-20.533-8.476-29.02z"/><path d="M181.65 118.065l.317 1.127s2.75 1.882 4.756 2.446l1.59-1.16s-.914-1.173-.62-2.897c-2.098-1.34-6.042.485-6.042.485zm19.34-47.02l-2.164 3.855.473 2.94c-9.693 19.07-20.48 36.324-20.48 36.324l1.33 3.234 1.58-1.093 1.08.09s10.336-9.884 23.5-35.4c0 0 3.82.125 4.113-2.952.316-3.122.53-5.297.53-6.548-4.756-1.722-9.963-.45-9.963-.45z"/><g fill="#FFF"><path d="M130.26 134.925c-3.46 1.116-4.937.327-4.937.327.676-.687 1.116-2.006 1.116-2.006-3.055.845-4.013 0-4.013 0 .496-.293.992-1.465.992-1.465-3.98 0-6.154.655-6.154.655 3.302.417 5.455 1.87 7.292 3.742 2.58-.192 4.17-.417 5.286-.61l.415-.642zm12.813 11.586a43.163 43.163 0 0 0 4.046-2.704c-7.71.338-10.606-.597-10.606-.597 1.375-1.376 3.088-2.57 4.18-3.653-.822.135-1.678.225-2.512.282-.01.37-.428.8-1.6 1.52-2.31.36-4.576.7-6.807 1.003a22.6 22.6 0 0 0 2.062 1.96c.518-.18 1.082-.337 1.668-.54 0 .462-.124 1.014-.304 1.555.914.63 1.95 1.195 3.112 1.668.124-.755.35-1.555.8-2.254.394.113.61 1.24.823 1.567.575.833 1.32.968 1.465 1.656 3.234.744 7.326.947 12.746.26l1.5-1.207c-7.913.146-10.573-.52-10.573-.52z"/><path d="M123.553 132.908s1.68.113 3.618-.586c0 0 .114 1.296-.777 2.468 0 0 1.645-.01 5.015-.79 0 0-.282.688-.7 1.432.61-.113 1.072-.18 1.556-.18 1.093 0 1.217.237 2.164.237 1.792 0 2.017.37 2.277 2.467.372.53.778.89 1.082 1.206 1.33-.113 2.863-.248 4.407-.473 0 0-1.713 2.378-4.305 4.136 0 0 7.178.676 10.897.214 0 0-1.6 1.95-3.82 3.077 0 0 4.958.316 10.29.225 0 0-1.05 1.16-2.097 2.006 0 0 6.582 1.476 11.27.36-16.916-6.727-26.214-16.904-40.358-16.904a5.593 5.593 0 0 1-.52 1.104zm-68.195 30.45l-3.787 4.87s11.18-1.736 17.887-.72l1.86-3.19c-3.663-1.905-15.96-.96-15.96-.96z"/><path d="M57.094 161.173l-1.172 1.476s11.552-.88 15.744 1.07l2.74-4.114c-3.732-.62-17.312 1.567-17.312 1.567zm1.995-2.446l-1.33 1.634s13.827-2.152 17.096-1.363l.237-.327c-3.427-1.126-16.004.057-16.004.057zm4.653-5.353l-4.012 4.598s11.192-1.172 15.802.135l4.643-5.376c-4.71-.776-16.432.644-16.432.644zm6.02-6.04l-5.32 5.273s9.805-1.33 16.274-.485l2.536-2.806c-2.424-2.062-13.49-1.983-13.49-1.983z"/><path d="M70.776 146.41l-.282.247s9.568-.158 13.23 2.14l.553-.585c-2.964-1.68-13.5-1.803-13.5-1.803z"/><path d="M76.062 141.834l-4.564 3.933s10.64.192 13.254 1.95l3.922-3.866c-3.45-1.97-12.612-2.016-12.612-2.016zm-6.11 26.09l.136.97 1.544-2.672-.17-.935-1.51 2.637zm2.04-3.483l.148.925 2.57-3.753-.18-1.048-2.537 3.877zm3.078-4.642l.17 1.116.258-.327-.225-1.082-.203.293zm.732-.992l.237 1.127 4.35-4.914-.18-1.342-4.408 5.128zm4.982-5.76l.18 1.353 2.648-2.82-.338-1.295-2.49 2.762zm3.01-3.323l.337 1.296.52-.53-.18-1.5-.677.733zm1.25-1.342l.18 1.51 3.47-3.39-.044-1.77-3.606 3.65zm33.27 22.125a3.708 3.708 0 0 0-3.71-3.72 3.712 3.712 0 0 0-3.73 3.72 3.713 3.713 0 0 0 3.73 3.72c2.04 0 3.71-1.658 3.71-3.72zm-6.65 0a2.926 2.926 0 0 1 2.94-2.93 2.922 2.922 0 0 1 2.92 2.93 2.922 2.922 0 0 1-2.92 2.93 2.927 2.927 0 0 1-2.94-2.93z"/><path d="M116.115 172.635l-.834-1.792c.497-.18.835-.654.835-1.183 0-.7-.564-1.262-1.25-1.262h-1.804v4.25h.8v-1.737h.576l.8 1.725h.88zm-1.25-2.525h-1.004v-.935h1.004c.248 0 .462.225.462.473a.471.471 0 0 1-.462.462z"/></g><g fill="#EA7200"><path d="M130.124 148.28c1.307-1.758 2.186-2.885 2.412-3.584-1.16.496-2.637.766-3.437 1.995-.002-.01.573.564 1.024 1.59zm6.717 1.206s.87-.113 1.646-.868c0 0-.823-1.25-1.296-2.423-.575 1.465-.35 3.29-.35 3.29zm-4.023-30.87c.7 5.546 2.03 7.9 2.03 7.9s2.095 1.646 6.074 3.27c-4.023-7.438-8.103-11.17-8.103-11.17zM89.214 143.39l1.6-.903s6.593 1.07 46.05-3.01c-.948-.686-1.41-.55-1.41-2.118 0-.508.08-.598-.766-.598-.868 0-1.228-.237-2.243-.237-1.274 0-3.144 1.274-22.484 1.274-15.383 0-26.157-1.286-26.878-1.286-.7 0-2.096 1.307-6.21 4.62 0 .023 8.104-.078 12.342 2.255zM69.12 168.103c-5.94-1.138-18.18.913-18.18.913l-3.29 4.733 19.158-.902 2.31-4.744zm131.825-90.938c-6.4 11.507-13.39 26.766-20.996 36.188l2.197-1.375.473-.474-.394 1.296.924-.45-1.397 2.478 1.296-1.06s6.524-7.325 23.024-37.123c-3.664-.552-5.13.52-5.13.52zm.665-4.474l-1.33 2.12s3.223-.61 7.528-.25l1.555-2.185c-4.733-.902-7.753.315-7.753.315z"/><path d="M181.267 113.58s-.61.496-1.555.755l.8 1.702.496-.383-.203-.62.834-1.578-.373.124zm5.726 4.417c-1.352-.7-3.967.327-3.967.327s2.648.63 4.147 1.307c.01.013-.248-.607-.18-1.633zm-70.866 25.9c-1.138.1-2.23.202-3.313.28a303.55 303.55 0 0 1-18.64.948c-1.737.034-2.706.034-2.706.034-.1.078-.17.157-.27.236-.26.225-.496.44-.755.665l12.758 20.366 14.167-22.63c-.418.02-.823.066-1.24.1m41.687-66.606a71.593 71.593 0 0 0 1.668-.778l16.973-27.127c-10.628 2.13-30.733 5.872-49.994 7.9.193.316.373.63.564.947.44.71.857 1.43 1.285 2.164 14.898-1.645 30.17-4.238 41.326-6.334l-15.868 25.166c1.206-.586 2.57-1.25 4.046-1.938m-74.292 50.94a107.19 107.19 0 0 1-3.494-.686c-.45-.1-.902-.203-1.352-.293l5.026 8.025c.35.023.744.045 1.195.08.902.055 1.995.146 3.257.236l-4.632-7.36z"/></g><path d="M112.813 144.178c-8.464.687-15.136.88-18.64.947-1.737.034-2.706.034-2.706.034-.1.078-.17.157-.27.236l12.003 19.182 12.927-20.68c-1.127.1-2.232.2-3.314.28zm-27.904-8.825c.9.056 1.994.147 3.256.237l-4.643-7.348a112.954 112.954 0 0 1-3.494-.687l4.88 7.798zm84.727-81.29L153.77 79.227c1.194-.597 2.57-1.25 4.034-1.95l16.556-26.45c-10.47 2.05-29.2 5.454-47.334 7.403.44.71.857 1.432 1.285 2.165 14.91-1.633 30.17-4.225 41.327-6.333zM91.513 60.17c0-1.17-.045-2.354-.17-3.56-10.31 1.093-16.476 3.528-18.82 4.643 3.606-1.015 10.04-1.32 18.99-1.082zm78.428 47.594s-12.554-17.626-36.694-35.4c2.05 4.24 3.967 8.623 5.68 13.153.237.63.203 1.183-.327 1.183-5.298 0-23.96-10.267-42.297-8.43 9.523 9.072 19 21.796 9.816 17.142 0 0 9.58 5.917 20.837 17.795 8.385 0 10.064 1.41 10.56 2.58.947 2.255 2.333 6.29 7.833 12.76 2.524 0 2.987-.17 3.91-2.424 0 0 .688 2.885-.585 5.004 11.45 9.05 33.675 18.145 37.067 18.145 1.375 0-1.443-12.442-7.878-27.397-2.12-9.434-3.268-12.093-7.923-14.11zM65.615 96.99s3.28 1.938 8.655 5.984c-1.32-2.288-4.802-4.78-8.623-7.09l-8.35.62.62.993c2.536-.158 5.116-.327 7.697-.507zm49.262 14.662c-1.32 7.156.068 12.904.068 12.904-.225-2.39 1.645-10.414 1.645-10.414l-1.714-2.49zm-4.193-4.102c-1.32 8.216.54 14.775.54 14.775-.393-3.02 1.173-11.912 1.173-11.912l-1.713-2.863zm-4.16-3.72c-1.35 8.78.756 15.79.756 15.79-.407-3.99.957-13.3.957-13.3l-1.713-2.49zM97.06 89.36S80.918 75.994 60.87 72.635c-.72 0-2.164 3.043-2.164 3.043s2.12-1.916 2.76-1.916C78.62 77.076 97.06 89.36 97.06 89.36z" fill="#006D75"/><path d="M103.2 159.426l9.625-15.248c-8.464.687-15.136.88-18.64.947l9.015 14.3z" fill="#FFF"/></svg>