<?xml version="1.0" encoding="UTF-8"?>
<!DOCTYPE svg PUBLIC "-//W3C//DTD SVG 1.1//EN" "http://www.w3.org/Graphics/SVG/1.1/DTD/svg11.dtd">
<svg xmlns="http://www.w3.org/2000/svg" width="100%" height="100%">
    <desc>SVG Homework 1</desc>
    <g alignment-baseline="baseline">
        <svg height="1200" width="1200">
            <g class="chart-container">
                <g class="chart-lines">
                    <line x1="100" y1="10" x2="100" y2="450" style="stroke:rgb(0,0,0);stroke-width:4" />
                    <line x1="100" y1="448" x2="1000" y2="448" style="stroke:rgb(0,0,0);stroke-width:4" />
                    <line x1="200" y1="438" x2="200" y2="458" style="stroke:rgb(0,0,0);stroke-width:4" />
                    <line x1="300" y1="438" x2="300" y2="458" style="stroke:rgb(0,0,0);stroke-width:4" />
                    <line x1="400" y1="438" x2="400" y2="458" style="stroke:rgb(0,0,0);stroke-width:4" />
                    <line x1="500" y1="438" x2="500" y2="458" style="stroke:rgb(0,0,0);stroke-width:4" />
                    <line x1="600" y1="438" x2="600" y2="458" style="stroke:rgb(0,0,0);stroke-width:4" />
                    <line x1="700" y1="438" x2="700" y2="458" style="stroke:rgb(0,0,0);stroke-width:4" />
                    <line x1="800" y1="438" x2="800" y2="458" style="stroke:rgb(0,0,0);stroke-width:4" />
                    <line x1="900" y1="438" x2="900" y2="458" style="stroke:rgb(0,0,0);stroke-width:4" />
                    <line x1="1000" y1="438" x2="1000" y2="458" style="stroke:rgb(0,0,0);stroke-width:4" />
                </g>
                <g class="chart-text">
                    <text x="192" y="475" fill="black">50</text>
                    <text x="288" y="475" fill="black">100</text>
                    <text x="388" y="475" fill="black">150</text>
                    <text x="488" y="475" fill="black">200</text>
                    <text x="588" y="475" fill="black">250</text>
                    <text x="688" y="475" fill="black">300</text>
                    <text x="788" y="475" fill="black">350</text>
                    <text x="888" y="475" fill="black">400</text>
                    <text x="988" y="475" fill="black">450</text>
                </g>
            </g>
            <g class="bar-graph-container">
                <text x="910" y="338" fill="black">4</text>
                <text x="65" y="338" fill="black" transform="rotate(90, 65, 338)" font-size="30">Tahiti</text>
                <text x="65" y="185" fill="black" transform="rotate(90, 65, 185)" font-size="30">Raiatea</text>
                <text x="65" y="20" fill="black" transform="rotate(90, 65, 20)" font-size="30">Tongatapu</text>
                <rect x="100" y="304" rx="20" ry="20" width="804" height="130" style="fill:red;stroke:black;stroke-width:2;" />
                <rect x="100" y="162" rx="20" ry="20" width="200" height="130" style="fill:red;stroke:black;stroke-width:2;" />
                <rect x="100" y="20" rx="20" ry="20" width="132" height="130" style="fill:red;stroke:black;stroke-width:2;" />
            </g>
        </svg>
    </g>
</svg>