<svg xmlns="http://www.w3.org/2000/svg" viewBox="0 0 241.892 155.473"><title>Washington Capitals light logo</title><g fill="#FFF"><path d="M125.932 106.303c-2.984 7.18-2.566 16.43.474 21.32.01 0 17.39 27.85 17.39 27.85l13.456-19.525h22.036l12.026-14.8H163.42l-8.413 10.362-16.76-13.942c-.364-.34-.805-2.17-.11-3.854l7.62-18.413s1.608 7.853 11.794 7.853h60.547c2.874 0 11.63 0 14.988-8.15 3.072-7.42-1.51-11.485-1.51-11.485h4.824l5.494-13.27h-29.6c-3.734 0-7.203.947-9.923 2.577l13.976-33.742h-15.274l-15.34 37.057s-2.742-5.892-11.706-5.892H156.12L185.212 0h-15.274l-29.073 70.248h-37.343a34 34 0 0 0-25.075 10.98s-.077-10.98-13.116-10.98H32.107c-13.292 0-26.98 7.93-31.165 18.05-2.96 7.135 1.2 14.866 10.672 14.866h12.95c5.386 0 11.113-3.59 13.58-5.33 0 0 2.752 5.33 10.725 5.33h18.226l-6.222 14.988h15.275l6.2-14.988h44.887l-1.3 3.14z"/><path d="M63.36 51.175l5.285-3.843 5.275 3.843-2.015-6.21 5.286-3.833h-6.518l-2.026-6.222-2.026 6.222H60.1l5.287 3.832-2.028 6.21zm34.237 0l5.275-3.843 5.297 3.843-2.027-6.21 5.286-3.833h-6.53l-2.027-6.222-2.004 6.222h-6.542l5.286 3.832-2.017 6.21zm34.237 0l5.286-3.843 5.275 3.843-2.004-6.21 5.276-3.833h-6.53l-2.015-6.222-2.025 6.222h-6.53l5.286 3.832-2.016 6.21zm-81.48 8.215h.02l-.395 6.167h2.124l5.936-7.73h-1.73l-4.503 6.034h-.022l.418-6.034h-2.18l-4.515 6.035h-.033l.463-6.034h-1.86l-.44 7.73h2.09l4.625-6.166zm4.415 6.167h1.86l1.53-1.73h4.45l.176 1.73h2.06l-.76-7.73h-2.18l-7.137 7.73zm7.74-3.006h-3.204l2.995-3.358.21 3.36zm12.82-2.422c.595-1.553-.23-2.5-2.49-2.5-1.794 0-3.754.705-4.503 2.5-1.288 3.106 4.912 1.575 4.196 3.304-.23.562-1.013 1.178-2.445 1.178-1.377 0-1.817-.562-1.53-1.476h-1.74c-.684 1.652.307 2.62 2.554 2.62 2.62 0 4.383-.946 5.044-2.532 1.41-3.403-4.99-1.4-4.152-3.403.286-.695 1.222-1.058 1.938-1.058 1.2 0 1.74.363 1.388 1.366h1.74zm1.64 5.43l1.377-3.316h4.207l-1.377 3.315h1.73l3.204-7.73h-1.728l-1.31 3.15h-4.207l1.3-3.15h-1.73l-3.194 7.73h1.73zm10.022 0l3.205-7.732h-1.73l-3.204 7.73h1.73zm3.93 0l2.512-6.036h.022l1.993 6.035h2.323l3.205-7.73h-1.575l-2.456 5.924h-.022l-1.905-5.924h-2.445l-3.205 7.73h1.553zm19.702-5.243c.75-1.806-.628-2.687-2.962-2.687-3.04 0-5.396 1.73-6.354 4.042-1.156 2.797.264 4.086 3.15 4.086 1.123 0 2.907-.22 4.196-.683l1.498-3.6h-4.163l-.497 1.188h2.467l-.606 1.477c-.97.264-1.597.352-2.27.352-2.378 0-2.565-1.4-1.97-2.83.826-2.016 2.676-2.842 4.317-2.842.85 0 1.796.418 1.4 1.498h1.794zm2.126 5.242h1.74l2.665-6.464h2.95l.53-1.266h-7.632l-.518 1.266h2.94l-2.675 6.464zm10.098.198c2.852 0 5.066-1.355 6.19-4.075 1.133-2.698.032-4.053-2.82-4.053s-5.066 1.355-6.19 4.053c-1.133 2.72-.032 4.075 2.82 4.075zm-1.024-4.074c.75-1.816 2.19-2.796 3.876-2.796 1.663 0 2.29.98 1.542 2.797-.75 1.83-2.18 2.81-3.876 2.81-1.674 0-2.29-.98-1.542-2.81zm15.087 2.07l-1.915-5.924h-2.434l-3.193 7.73h1.553l2.51-6.034h.012l1.982 6.035h2.335l3.193-7.73H139.4l-2.467 5.924h-.022zm97.075 38.126a2.43 2.43 0 0 0 2.423 2.423 2.422 2.422 0 1 0-2.422-2.424zm4.306 0a1.886 1.886 0 0 1-1.893 1.894c-1.057 0-1.905-.837-1.905-1.894s.848-1.905 1.905-1.905a1.912 1.912 0 0 1 1.894 1.906z"/><path d="M235.417 103.252h.518v-1.123h.363l.53 1.122h.572l-.54-1.167a.813.813 0 0 0 .54-.76.813.813 0 0 0-.815-.815h-1.156v2.742h-.013zm.507-2.235h.65c.176 0 .297.132.297.297s-.13.297-.296.297h-.65v-.593z"/></g><path d="M183.582 124.837H165.17l-6.047 7.422h18.413l6.046-7.423z" fill="#041E41"/><g fill="#CF0A2C"><path d="M29.947 79.84h9.658l2.445-5.914h-9.944c-11.728 0-24.16 7.07-27.762 15.77-2.19 5.264 1.013 9.768 7.257 9.768h12.952c5.627 0 12.477-5.396 12.477-5.396l-6.047-2.566s-2.753 2.07-5.726 2.07h-12.4c-1.553 0-2.202-1.51-1.377-3.48 2.334-5.67 10.605-10.252 18.467-10.252zm38.06 19.624l5.968-14.415c2.544-6.146-1.332-11.124-8.656-11.124H46.366L43.91 79.84h20.54c4.382 0 3.05 3.227 3.05 3.227H52.71c-5.88 0-10.22 2.698-11.596 6.046-2.368 5.726 1.1 10.34 7.742 10.34h7.5c2.697 0 5-1.552 5-1.552l-.65 1.565h7.3zm84.597-25.538l-2.456 5.914h23.005c4.383 0 3.04 3.227 3.04 3.227h-14.79c-5.882 0-10.22 2.698-11.608 6.046-2.368 5.726 1.1 10.34 7.742 10.34h7.5c2.697 0 5.01-1.552 5.01-1.552l-.64 1.565h7.29l5.98-14.415c2.534-6.145-1.332-11.123-8.644-11.123h-21.43zm34.755 25.538l23.488-56.692h-7.3l-23.48 56.692h7.29zM131.92 73.926h-7.29l-2.456 5.914h7.29l2.456-5.914zm-10.58 25.538l6.794-16.397h-7.29l-6.795 16.397h7.29zm79.377-19.657c-2.258 5.44.672 9.856 6.54 9.856h14.813c1.09 0 1.597.88 1.145 1.96-.452 1.08-1.685 1.96-2.764 1.96h-27.09l-2.456 5.892h27.19c5.055 0 9.636-1.145 11.596-5.87 2.247-5.43-.683-9.845-6.54-9.845h-14.824c-1.08 0-1.597-.88-1.145-1.96.442-1.08 1.686-1.95 2.765-1.95h23.996l2.457-5.913h-24.095c-5.044-.01-10.054 2.17-11.585 5.87zm-87.77 13.028l7.83-18.908h-17.255c-13.534 0-23.853 8.436-28.16 18.842L66.39 114.45h7.3L82.17 94c3.24-7.82 10.364-14.15 21.65-14.15h7.225l-4.58 11.055c-.607 1.465-2.292 2.665-3.756 2.665h-16.86l-2.456 5.892h20.187c3.645 0 7.323-1.663 9.37-6.63z"/><path d="M129.334 107.7c-2.412 5.85-2.324 13.92.21 17.984l14.414 23.082L153.44 135l-17.543-14.58c-1.85-1.53-2.38-5.187-1.156-8.083L179.728 3.7h-7.3L143.33 73.948h-8.644l-2.456 5.914h8.656l-11.552 27.84z"/></g><path d="M159.453 88.98c-1.266 0-2.71 1.013-3.238 2.28s.077 2.302 1.344 2.302h11.133c1.608 0 3.645-1.156 4.24-2.577l1.19-2.896s-2.082.89-4.417.89h-10.253zm-108.703 0c-1.266 0-2.72 1.013-3.238 2.28s.077 2.302 1.344 2.302H59.99c1.608 0 3.645-1.156 4.24-2.577l1.2-2.896s-2.092.89-4.427.89H50.75z" fill="#FFF"/></svg>