<svg xmlns="http://www.w3.org/2000/svg" viewBox="0 0 24 16"><path d="M5.02.12v10.732l6.44 4.656 6.444-4.656V.12H5.02zm12.676 10.626l-6.235 4.506-6.234-4.506V.326h12.47v10.42z" fill="#111"/><path d="M5.226 10.746l6.235 4.506 6.236-4.506V.326H5.226v10.42zm12.058-3.134H5.638V.74h11.647V7.61zm-11.646.36h11.647v2.564l-5.823 4.21-5.824-4.21V7.972z" fill="#FFF"/><path d="M5.226 10.746l6.235 4.506 6.236-4.506V.326H5.226v10.42zM5.638.74h11.647V7.61H5.638V.74zm0 7.232h11.647v2.564l-5.823 4.21-5.824-4.21V7.972z" fill="#FFF"/><path d="M11.682 2.144c.107.25.293.842.293 1.944 0 1.103-.186 1.695-.293 1.944h.763V4.514h3.23v1.52h.763c-.107-.25-.292-.842-.292-1.945 0-1.104.186-1.696.292-1.945h-4.756zm3.993 1.815h-3.23V2.7h3.23v1.26zM7.247 5.478v-1.39c0-1.103.186-1.695.292-1.944H6.482c.107.25.292.84.292 1.944 0 1.103-.186 1.695-.292 1.944h4.236c.07-.11.268-.467.314-.974-.242.165-.746.42-1.59.42H7.248zM13.102 12.4l.405-2.32-.084-.036s-.33.44-.39.523c-.137-.165-.395-.37-.744-.486l.153-.375-.28.113.02-.034-.35.016-.208-.37.088-.154c.01-.01.087-.074.087-.074l-.1-.19-.21.017-.004.116-.024.04-.024-.04-.004-.117-.21-.015-.1.19.087.073c.008.01.07.12.09.154l-.21.37-.346-.018.018.034-.28-.113.155.376c-.35.116-.608.322-.743.487-.064-.083-.394-.524-.394-.524l-.084.037.404 2.32s.576.147 1.64.147c1.066 0 1.642-.147 1.642-.147m-1.948-2.484l.277-.478-.135-.232-.033-.034.023-.034.05.004.008.042.117.203.117-.203.008-.042.05-.004.023.034-.033.034-.135.23.277.48h.22l-.027.052h-.22l-.28-.48-.277.48h-.22l-.028-.052h.22zm.096 2.34c-.28 0-.586-.034-.8-.063.283.108.71.152.71.152-.315 0-.662-.042-.876-.073.313.12.84.17.84.17-.775-.022-1.235-.137-1.235-.137l-.358-2.07.36.482c.16-.258.467-.466.86-.582l-.107-.265.558.25v-.136l.258-.444.26.444v.137l.557-.25-.11.265c.395.116.703.324.86.582l.362-.482-.358 2.07s-.46.115-1.236.136c0 0 .528-.048.84-.168-.212.03-.56.073-.876.073 0 0 .428-.044.712-.152-.214.03-.52.062-.8.062 0 0 .416-.043.7-.148-.254-.054-.566-.098-.912-.098-.345 0-.658.043-.912.097.285.105.702.148.702.148" fill="#FFF"/><path d="M9.958 10.803l.098.13c.24-.467.717-.52.717-.52-.41.153-.58.393-.637.63l.092.122s-.012.33.054.47c.02-.01.045-.018.072-.026-.213-.88.48-1.043.48-1.043-.49.253-.444.704-.345 1l.133-.033.074-.365c-.063-.025-.11-.087-.11-.16 0-.092.077-.168.17-.168.056 0 .105.026.135.066.045.028.075.08.075.136 0 .06-.033.113-.083.14l.155.284c.08-.008.166-.014.252-.017l-.502-1.22c-.388.11-.693.32-.832.573M12.05 11.156c-.05-.03-.082-.083-.082-.145 0-.092.076-.168.17-.168.055 0 .103.026.134.066.045.028.075.08.075.136 0 .074-.05.135-.117.154l.068.336c.05.01.094.022.135.034.1-.297.145-.748-.345-1 0 0 .693.16.48 1.04l.07.026c.067-.14.055-.47.055-.47l.092-.122c-.056-.236-.226-.476-.637-.63 0 0 .478.054.718.522l.098-.13c-.14-.253-.444-.463-.834-.577l-.502 1.222c.086.002.17.008.253.016l.17-.31z" fill="#FFF"/><path d="M10.76 10.866c-.08 0-.146.065-.146.145 0 .08.065.146.145.146.08 0 .144-.065.144-.145 0-.08-.066-.144-.145-.144m0 .273c-.072 0-.13-.06-.13-.13s.058-.13.13-.13c.07 0 .128.06.128.13s-.06.13-.13.13M12.282 11.01c0-.08-.065-.144-.145-.144-.08 0-.145.065-.145.145 0 .08.065.146.145.146.08 0 .145-.066.145-.145m-.145.13c-.07 0-.13-.06-.13-.13s.06-.13.13-.13.13.06.13.13-.06.13-.13.13M9.842 11.38c0-.036-.027-.064-.06-.064-.005 0-.01 0-.016.003l.02.123c.032-.004.056-.03.056-.064" fill="#FFF"/><path d="M9.783 11.198c-.013 0-.025.002-.037.004l.004.023c.01-.003.02-.004.033-.004.08 0 .146.072.146.16 0 .078-.056.144-.126.155l.004.023c.082-.013.145-.088.145-.18 0-.1-.076-.18-.17-.18M13.08 11.38c0 .032.024.06.055.062l.02-.124c-.004-.002-.01-.003-.016-.003-.034 0-.06.03-.06.064" fill="#FFF"/><path d="M13.114 11.558l.004-.023c-.07-.01-.126-.077-.126-.156 0-.088.066-.16.146-.16.01 0 .022.002.033.005l.005-.023c-.012-.003-.024-.004-.037-.004-.094 0-.17.08-.17.18 0 .092.064.168.146.18M11.536 10.143c0-.042-.034-.075-.075-.075-.04 0-.074.034-.074.075 0 .04.034.075.075.075.043 0 .076-.033.076-.075m-.142 0c0-.037.03-.067.067-.067.038 0 .068.03.068.067 0 .037-.03.067-.067.067-.036 0-.066-.03-.066-.067M11.867 10.363c.042 0 .075-.034.075-.075 0-.04-.034-.075-.075-.075-.04 0-.075.034-.075.075 0 .042.034.075.075.075m0-.142c.037 0 .067.03.067.068 0 .037-.03.067-.067.067-.037 0-.067-.03-.067-.067 0-.037.03-.067.067-.067M11.016 10.363c.04 0 .075-.034.075-.075 0-.04-.033-.075-.074-.075-.042 0-.075.034-.075.075 0 .042.034.075.076.075m0-.142c.037 0 .067.03.067.068 0 .037-.03.067-.067.067-.037 0-.067-.03-.067-.067 0-.037.03-.067.066-.067" fill="#FFF"/><path d="M5.638 10.535l5.824 4.21 5.823-4.21V7.972H5.638v2.563zm.367-1.925h10.913v1.738l-5.456 3.943-5.456-3.942V8.61zM5.638 7.612h11.647V.74H5.638V7.61zm.367-6.506h10.913V7.07H6.005V1.107z" fill="#A2AAAD"/><path d="M12.446 3.96h3.23V2.7h-3.23v1.26zm.094-1.167h3.04v1.07h-3.04v-1.07z" fill="#A2AAAD"/><path d="M11.53 2.05s.35.537.35 2.04c0 1.5-.35 2.038-.35 2.038h1.01v-1.52h3.04v1.52h1.01s-.35-.538-.35-2.04.35-2.04.35-2.04h-5.06zm4.908 3.982h-.763v-1.52h-3.23v1.52h-.763c.107-.25.293-.84.293-1.944 0-1.103-.186-1.695-.293-1.944h4.756c-.107.25-.292.842-.292 1.944 0 1.103.186 1.695.292 1.944M7.342 5.384V4.088c0-1.502.35-2.04.35-2.04h-1.36s.35.538.35 2.04-.35 2.04-.35 2.04h4.44s.37-.505.37-1.272c0 0-.507.528-1.696.528H7.342zm3.378.648H6.483c.107-.25.292-.84.292-1.944 0-1.103-.186-1.695-.292-1.944H7.54c-.107.25-.293.84-.293 1.944v1.39h2.2c.84 0 1.346-.255 1.588-.42-.046.507-.246.865-.315.974M11.203 10.172l-.47-.212.47 1.146v-.934zm-.16.216c-.018 0-.035-.005-.048-.015-.038-.01-.067-.044-.067-.085 0-.05.04-.088.088-.088.028 0 .054.014.07.035.024.015.04.04.04.07 0 .046-.038.083-.084.083M11.72 10.172v.935l.47-1.147-.47.212zm.173.216c-.017 0-.034-.005-.047-.015-.038-.01-.067-.044-.067-.085 0-.05.038-.088.087-.088.03 0 .054.014.07.035.023.015.04.04.04.07 0 .046-.038.083-.084.083M11.67 10.152l-.21-.275-.21.275.21.25.21-.25zm-.297-.01c0-.048.04-.087.088-.087.05 0 .09.04.09.088 0 .05-.04.088-.09.088-.048 0-.087-.038-.087-.087" fill="#A2AAAD"/><path d="M13.11 11.58c-.093-.014-.164-.1-.164-.2 0-.114.086-.206.193-.206.013 0 .027.002.04.005l.13-.763-.57.762c.012.364-.077.512-.077.512s-.19-.077-.404-.12l-.076-.37c-.032 0-.062-.01-.087-.027h-.003l-.187.34s-.237-.022-.355-.022l.106-.328-.197-.507-.195.507.106.328c-.117 0-.354.023-.354.023l-.174-.316c-.01.002-.022.004-.033.004-.025 0-.048-.005-.068-.015l-.078.383c-.212.043-.404.12-.404.12s-.09-.148-.077-.513l-.57-.762.13.762c.013-.003.027-.005.04-.005.107 0 .194.092.194.205 0 .103-.07.187-.164.202l.114.66c.18-.07.784-.28 1.536-.28.75 0 1.356.21 1.536.28l.11-.66zm-.1-.008l.077.033-.08.08.004-.113zm-3.175.033l.076-.033.005.113-.08-.08zm-.083-.457l.046-.103.037.107-.083-.004zm.19.063l-.068-.045.093-.065-.024.11zm.03.032l.112-.01-.077.084-.036-.074zm-.02.296l.045-.07.066.093-.11-.022zm.055-.098l.007-.083.1.05-.107.033zm.327.404c0-.038.03-.07.07-.07.037 0 .068.032.068.07 0 .038-.03.07-.07.07-.037 0-.068-.032-.068-.07m.102.094c-.012 0-.024-.003-.034-.008h.002c.047 0 .085-.038.085-.085 0-.02-.008-.038-.02-.052.026.013.043.038.043.07 0 .04-.034.075-.077.075m.555-.21c0-.04.032-.07.07-.07.038 0 .07.03.07.07s-.032.068-.07.068c-.038 0-.07-.03-.07-.07m.103.095c-.013 0-.024-.002-.034-.007.047 0 .085-.038.085-.085 0-.02-.007-.038-.02-.052.027.013.044.038.044.07 0 .04-.035.075-.077.075m.295-.68c0-.04.03-.07.07-.07.037 0 .068.03.068.07 0 .037-.03.068-.07.068-.037 0-.068-.03-.068-.07m.102.094c-.012 0-.024-.003-.034-.008.048 0 .086-.038.086-.085 0-.02-.007-.04-.02-.054.027.013.044.04.044.07 0 .04-.034.076-.076.076m.255.495c0-.038.03-.07.07-.07.037 0 .068.032.068.07s-.03.07-.07.07c-.037 0-.068-.032-.068-.07m.102.094c-.012 0-.024-.002-.034-.007.048 0 .086-.038.086-.085 0-.02-.008-.038-.02-.052.025.013.043.038.043.07 0 .04-.034.075-.076.075m.556.024c0-.038.03-.07.07-.07.037 0 .068.032.068.07 0 .038-.03.07-.068.07-.038 0-.07-.032-.07-.07m.103.094c-.013 0-.024-.003-.034-.008h.003c.047 0 .085-.038.085-.085 0-.02-.007-.038-.02-.052.027.013.044.038.044.07 0 .04-.034.075-.077.075m.618-.893l.046.103-.084.004.037-.107zm-.075.12l-.07.046-.022-.11.092.065zm-.097.077l-.035.074-.077-.083.113.01zm-.042.116l.007.083-.11-.03.103-.052zm-.048.203l.066-.09.045.068-.11.023z" fill="#A2AAAD"/><path d="M6.005 10.347l5.456 3.944 5.457-3.943V8.61H6.005v1.737zm3.495-.304s.33.44.39.523c.137-.166.395-.37.744-.486l-.154-.376.28.113-.02-.034.347.018c.024-.04.187-.33.21-.37l-.09-.153c-.01-.01-.086-.074-.086-.074l.1-.19.21.016.005.116.024.04.023-.04.004-.117.21-.016.103.19-.087.073c-.007.01-.07.12-.088.154.022.04.185.33.21.37l.345-.017-.018.034.28-.113-.155.376c.35.115.608.32.743.486l.39-.523.085.036-.403 2.32s-.576.147-1.64.147c-1.066 0-1.642-.147-1.642-.147l-.404-2.32.084-.037zM12.54 2.793h3.04v1.072h-3.04z" fill="#111"/><path d="M6.005 7.07h10.913V1.107H6.005V7.07zm4.766-.943H6.333s.35-.537.35-2.04c0-1.5-.35-2.038-.35-2.038h1.36s-.35.536-.35 2.038v1.295h2.105c1.188 0 1.695-.528 1.695-.528 0 .768-.37 1.272-.37 1.272m5.818 0h-1.01v-1.52h-3.04v1.52h-1.01s.35-.537.35-2.04c0-1.5-.35-2.038-.35-2.038h5.06s-.35.536-.35 2.038c0 1.502.35 2.04.35 2.04M10.76 10.882c-.072 0-.13.058-.13.13 0 .07.058.128.13.128.07 0 .128-.058.128-.13 0-.07-.06-.128-.13-.128M12.137 10.882c-.07 0-.13.058-.13.13 0 .07.06.128.13.128s.13-.058.13-.13c0-.07-.06-.128-.13-.128" fill="#111"/><path d="M11.125 12.44s-.528-.048-.84-.168c.212.03.56.073.876.073 0 0-.427-.044-.71-.152.213.03.52.062.8.062 0 0-.417-.043-.7-.148.253-.054.565-.098.91-.098.347 0 .66.043.913.097-.284.104-.7.148-.7.148.28 0 .585-.033.8-.062-.284.107-.712.152-.712.152.317 0 .664-.042.878-.073-.313.12-.84.17-.84.17.775-.022 1.235-.137 1.235-.137l.357-2.07-.36.482c-.16-.258-.467-.466-.86-.582l.108-.265-.558.25v-.136l-.26-.444-.257.444v.137l-.558-.25.11.265c-.395.116-.703.324-.86.582l-.362-.482.357 2.07s.46.115 1.235.136m2.01-.998c-.032-.003-.056-.03-.056-.063 0-.036.026-.064.058-.064.006 0 .01 0 .017.003l-.02.122zm.036-.217c-.01-.003-.02-.004-.032-.004-.08 0-.146.072-.146.16 0 .078.055.144.125.155l-.004.023c-.082-.013-.145-.088-.145-.18 0-.1.076-.18.17-.18.012 0 .024.002.036.004l-.003.023zm-.206-.422l-.098.13c-.24-.467-.717-.52-.717-.52.41.152.58.393.635.63l-.092.122s.012.33-.054.47c-.022-.01-.046-.018-.073-.026.213-.88-.48-1.043-.48-1.043.49.253.444.704.345 1l-.135-.033-.068-.336c.066-.02.116-.08.116-.154 0-.057-.03-.108-.075-.136-.03-.04-.08-.066-.133-.066-.094 0-.17.076-.17.17 0 .06.034.115.083.144l-.17.31c-.082-.007-.167-.013-.253-.016l.502-1.222c.39.113.694.323.834.575m-.827.353c-.08 0-.145-.065-.145-.145 0-.08.065-.144.145-.144.08 0 .145.065.145.145 0 .08-.065.146-.145.146m-.418-.984l.47-.212-.47 1.146v-.934zm-.26-.295l.21.275-.21.25-.21-.25.21-.275zm-.728.083l.47.21v.936l-.47-1.146zm.06.267l.502 1.222c-.086.002-.17.008-.253.016l-.154-.284c.05-.027.083-.08.083-.14 0-.057-.03-.108-.076-.136-.03-.04-.08-.066-.134-.066-.093 0-.17.076-.17.17 0 .07.045.132.11.157l-.075.365c-.05.01-.094.022-.134.034-.1-.297-.144-.748.346-1 0 0-.693.16-.48 1.04l-.072.026c-.066-.14-.054-.47-.054-.47l-.092-.122c.056-.236.226-.476.637-.63 0 0-.478.054-.718.522l-.098-.13c.137-.25.442-.46.832-.575m-.034.93c-.08 0-.145-.066-.145-.146 0-.08.065-.144.145-.144.08 0 .145.065.145.145 0 .08-.065.146-.145.146m-.992.162c.005-.002.01-.003.017-.003.033 0 .06.028.06.063 0 .033-.025.06-.056.063l-.02-.122zm.038.217c.07-.01.125-.077.125-.156 0-.088-.067-.16-.147-.16-.01 0-.022.002-.033.005l-.004-.023c.012-.003.024-.004.037-.004.094 0 .17.08.17.18 0 .092-.064.168-.146.18l-.003-.023zm.172-.156c0-.114-.087-.205-.193-.205-.014 0-.028.002-.04.005l-.132-.762.572.762c-.012.365.077.513.077.513s.19-.077.403-.12l.078-.384c.02.008.044.014.068.014.012 0 .023 0 .033-.004l.174.316s.237-.023.355-.023l-.107-.328.197-.507.196.507-.106.328c.118 0 .355.023.355.023l.187-.342h.003c.025.018.055.028.087.03l.075.368c.213.043.404.12.404.12s.09-.148.078-.513l.57-.763-.13.762c-.013-.004-.027-.006-.04-.006-.107 0-.194.092-.194.204 0 .102.07.187.164.202l-.114.66c-.18-.07-.784-.278-1.536-.278s-1.356.21-1.536.278l-.114-.66c.096-.014.168-.1.168-.2" fill="#111"/><path fill="#111" d="M11.183 9.968l.278-.48.28.48h.22l.027-.052h-.22l-.277-.48.136-.23.033-.034-.024-.034-.05.004-.008.042-.117.203-.116-.203-.008-.042-.05-.004-.023.034.032.033.136.232-.276.48h-.22l.028.05M11.06 11.813c.01.005.02.008.033.008.042 0 .077-.033.077-.076 0-.03-.018-.056-.043-.07.012.016.02.034.02.054-.002.046-.04.085-.087.085M10.403 11.93H10.4c.01.004.023.007.035.007.043 0 .077-.034.077-.077 0-.03-.018-.056-.043-.07.01.016.018.033.018.053 0 .048-.038.086-.085.086M11.814 11.813c.01.005.02.008.033.008.042 0 .077-.033.077-.076 0-.03-.018-.056-.043-.07.013.016.02.034.02.054 0 .046-.04.085-.086.085M12.472 11.93h-.002c.01.004.022.007.034.007.043 0 .077-.034.077-.077 0-.03-.017-.056-.042-.07.012.016.02.033.02.053 0 .048-.04.086-.086.086M11.457 11.224c.01.005.02.008.033.008.042 0 .077-.034.077-.077 0-.03-.018-.056-.043-.07.01.016.02.034.02.054-.002.046-.04.084-.087.084"/><path d="M11.06 11.796c.038 0 .07-.03.07-.07 0-.037-.032-.068-.07-.068-.038 0-.07.03-.07.07 0 .038.032.068.07.068M10.403 11.913c.038 0 .07-.03.07-.07 0-.037-.032-.068-.07-.068-.038 0-.07.03-.07.07 0 .037.032.068.07.068M11.814 11.796c.038 0 .07-.03.07-.07 0-.037-.032-.068-.07-.068-.038 0-.07.03-.07.07 0 .038.032.068.07.068M12.472 11.913c.038 0 .07-.03.07-.07 0-.037-.032-.068-.07-.068-.038 0-.07.03-.07.07 0 .037.032.068.07.068M11.457 11.207c.038 0 .07-.03.07-.07 0-.037-.032-.068-.07-.068-.038 0-.07.03-.07.068 0 .04.032.07.07.07M9.752 11.148l.083.004-.037-.107M9.943 11.21l.024-.11-.093.065M10.083 11.233l-.112.01.037.073M10.007 11.44l.108-.032-.1-.05M9.997 11.47l-.046.068.112.023M9.835 11.605l.08.08-.004-.113M13.123 11.045l-.036.107.083-.004M13.047 11.165l-.092-.065.023.11M12.95 11.242l-.112-.01.077.084M12.908 11.358l-.102.05.11.032M12.86 11.56l.11-.022-.045-.07M13.01 11.572l-.004.113.08-.08M11.55 10.143c0-.05-.04-.088-.09-.088-.048 0-.087.04-.087.088 0 .05.04.088.088.088.05 0 .09-.038.09-.087m-.164 0c0-.042.034-.075.075-.075.043 0 .076.034.076.075 0 .04-.034.075-.075.075-.04 0-.074-.033-.074-.075M11.937 10.235c-.016-.02-.04-.035-.07-.035-.05 0-.088.04-.088.088 0 .04.028.076.066.085.014.01.03.015.047.015.046 0 .083-.037.083-.083 0-.03-.015-.056-.04-.07m-.07.128c-.04 0-.074-.034-.074-.075 0-.042.034-.075.075-.075.042 0 .075.034.075.075 0 .042-.033.075-.075.075M11.086 10.235c-.016-.02-.04-.035-.07-.035-.05 0-.088.04-.088.088 0 .04.03.076.067.085.013.01.03.015.047.015.046 0 .083-.037.083-.083 0-.03-.016-.056-.04-.07m-.07.128c-.04 0-.074-.034-.074-.075 0-.042.035-.075.076-.075.04 0 .075.034.075.075 0 .042-.033.075-.074.075" fill="#111"/><path d="M11.528 10.143c0-.037-.03-.067-.067-.067-.036 0-.066.03-.066.067 0 .037.03.067.067.067.038 0 .068-.03.068-.067M11.867 10.22c-.037 0-.067.03-.067.068 0 .037.03.067.067.067.037 0 .067-.03.067-.067 0-.037-.03-.067-.067-.067M11.016 10.22c-.037 0-.067.03-.067.068 0 .037.03.067.066.067.037 0 .067-.03.067-.067 0-.037-.03-.067-.067-.067M19.265 15.653c.04 0 .076.033.076.075 0 .044-.033.076-.075.076-.04 0-.076-.033-.076-.076 0-.042.034-.075.075-.075zm0 .14c.035 0 .062-.027.062-.064 0-.037-.027-.065-.062-.065s-.062.028-.062.064c0 .036.027.064.062.064zm-.03-.108h.034c.02 0 .03.008.03.025 0 .016-.01.023-.023.024l.025.04h-.015l-.024-.04h-.014v.04h-.015v-.09zm.014.04h.013c.012 0 .023-.002.023-.016 0-.013-.01-.015-.02-.015h-.017v.03zM17.825 14.172c-.138-.366-.323-.564-.53-.564-.22 0-.413.233-.554.674-.13.408-.203.948-.203 1.523v.076h.455v-.075c0-.513.038-.997.106-1.363.093-.496.196-.455.197-.456.02 0 .112.004.194.397.07.338.108.79.108 1.27v.076h.455v-.077c0-.48.04-.932.11-1.27.08-.392.172-.396.192-.397 0 0 .103-.04.197.456.07.366.106.85.106 1.363v.076h.455v-.075c0-.575-.072-1.115-.203-1.523-.142-.44-.333-.674-.554-.674-.208 0-.393.198-.53.564z" fill="#111"/><path d="M18.355 13.835c.21 0 .38.882.38 1.97h.302c0-1.17-.305-2.12-.682-2.12-.214 0-.406.285-.53.73-.125-.445-.316-.73-.53-.73-.376 0-.682.95-.682 2.12h.303c0-1.088.17-1.97.38-1.97.208 0 .378.814.378 1.818h.304c0-1.004.168-1.818.377-1.818z" fill="#FFCE00"/><path d="M16.052 12.83c-.214 0-.388.174-.388.39 0 .213.174.387.388.387.214 0 .388-.174.388-.388 0-.215-.173-.39-.388-.39m0 .694c-.168 0-.305-.136-.305-.305 0-.17.136-.306.305-.306.168 0 .305.136.305.305 0 .168-.136.304-.305.304" fill="#FFF"/><path d="M16.212 13.13c0-.074-.06-.133-.13-.133h-.188v.443h.083v-.18h.06l.084.18h.093l-.088-.188c.05-.017.087-.066.087-.123m-.132.048h-.104v-.097h.104c.027 0 .048.023.048.05 0 .026-.02.048-.048.048" fill="#FFF"/><g fill="#FFF"><path d="M13.485 14.952h-.105v.195h-.07v-.488h.174c.038 0 .07.03.07.07v.152c0 .038-.03.07-.07.07zm0-.223h-.105v.152h.104v-.153zM13.67 14.882v.265h-.063v-.328h.063v.03s.01-.03.05-.03h.033v.062h-.083zM13.87 15.02v.064h.115v.063h-.116c-.036 0-.064-.028-.064-.063v-.202c0-.035.028-.063.063-.063h.083c.035 0 .063.027.063.062v.14h-.147zm.082-.138h-.084v.077h.084v-.078zM14.23 15.147h-.083c-.035 0-.063-.028-.063-.063v-.05h.063v.05h.084v-.05l-.097-.045c-.028-.014-.05-.033-.05-.064v-.045c0-.034.03-.062.064-.062h.084c.036 0 .064.028.064.063v.05h-.063v-.05h-.083v.043l.09.042c.03.015.056.03.056.064v.053c0 .036-.027.064-.062.064zM14.426 15.02v.064h.116v.063h-.116c-.035 0-.062-.028-.062-.063v-.202c0-.035.028-.063.062-.063h.084c.035 0 .063.027.063.062v.14h-.147zm.084-.138h-.084v.077h.084v-.078zM14.79 15.147v-.265h-.085v.265h-.063v-.328h.063v.03s.01-.03.05-.03h.034c.034 0 .062.027.062.062v.265h-.063zM15.023 15.147c-.035 0-.063-.028-.063-.063v-.202h-.063v-.063h.063v-.1h.063v.1h.063v.062h-.063v.202h.063v.063h-.063zM15.2 15.02v.064h.117v.063H15.2c-.034 0-.062-.028-.062-.063v-.202c0-.035.028-.063.063-.063h.085c.035 0 .063.027.063.062v.14H15.2zm.085-.138H15.2v.077h.085v-.078zM15.564 15.147v-.032s-.01.032-.05.032h-.034c-.035 0-.063-.028-.063-.063v-.202c0-.035.028-.063.063-.063h.034c.042 0 .05.03.05.03v-.192h.063v.488h-.063zm0-.265h-.084v.202h.084v-.202zM15.982 15.147h-.033c-.042 0-.05-.032-.05-.032v.032h-.064v-.488h.063v.192s.008-.032.05-.032h.032c.035 0 .063.028.063.063v.202c0 .034-.028.062-.063.062zm0-.265h-.084v.202h.084v-.202zM16.213 15.252h-.067l.032-.105-.09-.328h.068l.056.233.056-.234h.067l-.122.432z"/></g><g fill="#FFF"><path d="M13.485 14.952h-.105v.195h-.07v-.488h.174c.038 0 .07.03.07.07v.152c0 .038-.03.07-.07.07zm0-.223h-.105v.152h.104v-.153zM13.67 14.882v.265h-.063v-.328h.063v.03s.01-.03.05-.03h.033v.062h-.083zM13.87 15.02v.064h.115v.063h-.116c-.036 0-.064-.028-.064-.063v-.202c0-.035.028-.063.063-.063h.083c.035 0 .063.027.063.062v.14h-.147zm.082-.138h-.084v.077h.084v-.078zM14.23 15.147h-.083c-.035 0-.063-.028-.063-.063v-.05h.063v.05h.084v-.05l-.097-.045c-.028-.014-.05-.033-.05-.064v-.045c0-.034.03-.062.064-.062h.084c.036 0 .064.028.064.063v.05h-.063v-.05h-.083v.043l.09.042c.03.015.056.03.056.064v.053c0 .036-.027.064-.062.064zM14.426 15.02v.064h.116v.063h-.116c-.035 0-.062-.028-.062-.063v-.202c0-.035.028-.063.062-.063h.084c.035 0 .063.027.063.062v.14h-.147zm.084-.138h-.084v.077h.084v-.078zM14.79 15.147v-.265h-.085v.265h-.063v-.328h.063v.03s.01-.03.05-.03h.034c.034 0 .062.027.062.062v.265h-.063zM15.023 15.147c-.035 0-.063-.028-.063-.063v-.202h-.063v-.063h.063v-.1h.063v.1h.063v.062h-.063v.202h.063v.063h-.063zM15.2 15.02v.064h.117v.063H15.2c-.034 0-.062-.028-.062-.063v-.202c0-.035.028-.063.063-.063h.085c.035 0 .063.027.063.062v.14H15.2zm.085-.138H15.2v.077h.085v-.078zM15.564 15.147v-.032s-.01.032-.05.032h-.034c-.035 0-.063-.028-.063-.063v-.202c0-.035.028-.063.063-.063h.034c.042 0 .05.03.05.03v-.192h.063v.488h-.063zm0-.265h-.084v.202h.084v-.202zM15.982 15.147h-.033c-.042 0-.05-.032-.05-.032v.032h-.064v-.488h.063v.192s.008-.032.05-.032h.032c.035 0 .063.028.063.063v.202c0 .034-.028.062-.063.062zm0-.265h-.084v.202h.084v-.202zM16.213 15.252h-.067l.032-.105-.09-.328h.068l.056.233.056-.234h.067l-.122.432z"/></g></svg>