<svg xmlns="http://www.w3.org/2000/svg" viewBox="0 0 246.37 211.29"><title>Calgary Flames secondary dark logo</title><path d="M241.512 85.213s2.113-7.91 2.113-18.194c0-36.613-28.558-64.59-69.87-64.59-29.774 0-55.058 22.1-68.67 22.1-5.796 0-12.98-9.928-12.98-9.928s-7.908 5.308-2.19 17.39c0 0-9.362-7.593-23.555-7.593-20.808 0-27.423 16.66-27.423 16.66-15.832 5.52-14.67 14.367-27.477 15.383 0 0 1.413 14.01 18.696 14.537C23.568 83.178 3.433 85 3.433 85s5.704 10.695 23.37 10.695c11.408 0 19.343-4.41 19.343-4.41-17.705 9.52-6.31 22.736-23.752 31.33 0 0 3.855 2.18 8.503 2.945 0 0 .33 10.985 3.882 21.468 0 0-4.9-4.014-14.538-2.324 0 0 6.496 7.34 6.998 16.69.792 14.97 8.86 30.46 24.307 30.46 8.57 0 13.27-4.134 13.27-4.134-2.087 7.803-15.41 12.926-15.41 12.926s7.065 6.602 17.56 6.602c16.4 0 18.723-17.336 36.244-17.336 13.415 0 24.995 11.58 46.304 11.58 53.882 0 84.856-56.708 87.378-78.454H179.59s-7.433 22.71-24.122 22.71c-15.025 0-23.158-11.276-23.158-28.757 0-22.142 17.81-59.903 45.3-59.903 10.048 0 12.873 8.2 12.873 14.867 0 7.25-2.27 13.256-2.27 13.256h53.3zM17.902 59.427c9.507-1.017 14.326-14.075 30.17-14.075 12.57 0 20.518 10.72 20.518 10.72-19.33-5.86-16.847 9.23-37.576 9.23-9.93 0-13.11-5.875-13.11-5.875zm33.762 127.146c-16.042 0-19.475-21.97-19.475-27.713 0-3.182-2.404-8.344-2.404-8.344 10.272 3.314 10.747 21.204 25.693 21.204 8.41 0 14.285-6.84 23.633-3.42-14.378 7.592-14.008 18.273-27.45 18.273zM177.53 50.95c-28.863 0-51.414 37.18-51.414 66.017 0 20.214 10.034 34.87 29.31 34.87 19.82 0 28.256-23 28.256-23h45.406c-3.75 21.586-35.728 66.596-79.668 66.596-19.99 0-31.278-11.685-46.237-11.685-20.2 0-22.696 18.168-36.243 18.168-4.08 0-6.786-1.307-6.786-1.307 16.03-7.514 6.602-27.543 30.064-34.224-7.275-3.92-14.484-.383-24.53-.383-19.185 0-30.065-22.155-29.3-38.725 0 0 6.008 11.09 20.162 11.09 12.517 0 15.29-7.09 29.298-8.45-2.958-4.818-10.827-6.653-17.455-7.987-8.265-1.69-12.32-10.47-18.722-10.47-6.76 0-7.472 10.062-16.833 9.507 0 0 4.58-2.218 6.1-10.932 1.492-8.674 6.55-15.197 15.897-15.197 9.414 0 18.814 7.103 21.97 6.126-13.64-9.638-11.924-17.916-23.424-17.916-11.21 0-11.315 7.684-27 7.684-6.654 0-10.906-3.182-10.906-3.182C37.814 82.322 31.57 63.494 60.1 63.494c14.313 0 18.83 6.285 30.527 6.285-20.373-14.446-19.343-31.042-35.913-31.042-6.64 0-11.117 4.317-11.117 4.317S50.04 29.6 67.112 29.6c17.217 0 23.066 14.855 45.34 15.898-18.38-7.526-18.894-21.64-18.894-21.64s4.383 6.27 11.21 6.27c18.14 0 40.56-22.167 68.972-22.167 36.69 0 64.18 26.54 64.18 59.032 0 7.71-1.32 12.398-1.32 12.398h-41.035s1.28-3.103 1.28-8.04c.014-9.56-6.694-20.4-19.316-20.4zM40.612 124.388c3.816-.845 6.087-7.09 9.77-7.09 3.974 0 4.304 5.664 20.438 10.998-1.49.687-6.667 5.004-14.285 5.004-11.552.012-15.922-8.913-15.922-8.913z" fill="#FFF"/><path d="M103.196 198.905a6.192 6.192 0 0 0 0 12.384c3.419 0 6.18-2.774 6.18-6.193 0-3.42-2.774-6.192-6.18-6.192zm0 11.05a4.864 4.864 0 0 1-4.86-4.858c0-2.693 2.18-4.86 4.86-4.86s4.86 2.18 4.86 4.86a4.858 4.858 0 0 1-4.86 4.86z" fill="#111"/><path d="M105.73 203.67c0-1.16-.936-2.098-2.098-2.098h-2.984v7.064h1.334v-2.878h.95l1.335 2.878h1.466l-1.4-2.997a2.101 2.101 0 0 0 1.398-1.97zm-2.1.767h-1.65v-1.545h1.65c.423 0 .767.343.767.766a.77.77 0 0 1-.766.78z" fill="#111"/><path d="M243.545 87.8s2.825-8.093 2.825-20.794C246.37 28.73 215.937 0 173.753 0c-32.295 0-55.44 21.798-68.934 21.798-5.56 0-12.135-11.183-12.135-11.183S83.51 15.21 85.24 26.05c0 0-7.29-4.304-19.093-4.304-14.418 0-25.89 9.19-29.258 17.23-16.9 6.51-13.957 14.22-28.414 15.566 0 0 .594 15.25 16.728 18.63C16.94 81.437 0 83.034 0 83.034c0 5.202 11.764 18.603 35.054 14.76-5.98 8.583-1.043 16.888-17.085 24.546 0 0 1.993 3.26 10.297 5.4 0 0 .33 7.275 2.377 14.616 0 0-8.806-2.18-15.382 1.083 0 0 8.516 6.495 9.348 18.55.95 13.61 8.33 34.538 31.146 32.294-3.446 2.627-10.325 5.19-10.325 5.19s6.246 10.443 21.918 10.443c16.055 0 20.386-17.15 36.11-17.15 14.815 0 21.905 11.076 46.027 11.076 50.62 0 86.494-50.198 90.52-83.563H177.65s-6.602 22.828-22.208 22.828c-10.114 0-20.478-7.01-20.478-26.116 0-20.504 17.39-57.024 42.5-57.024 7.46 0 9.943 5.862 9.943 12.65 0 7.34-2.89 15.196-2.89 15.196h59.03V87.8zm-65.963-30.71c-27.49 0-45.3 37.748-45.3 59.903 0 17.48 8.133 28.756 23.158 28.756 16.69 0 24.122-22.71 24.122-22.71h57.302c-2.522 21.746-33.496 78.453-87.378 78.453-21.297 0-32.89-11.58-46.303-11.58-17.52 0-19.858 17.337-36.243 17.337-10.496 0-17.56-6.602-17.56-6.602s13.322-5.123 15.408-12.926c0 0-4.7 4.133-13.27 4.133-15.433 0-23.514-15.487-24.306-30.46-.502-9.335-6.998-16.69-6.998-16.69 9.638-1.69 14.537 2.325 14.537 2.325-3.537-10.483-3.88-21.468-3.88-21.468-4.648-.766-8.504-2.944-8.504-2.944 17.44-8.595 6.06-21.812 23.752-31.33 0 0-7.935 4.41-19.343 4.41C9.11 95.697 3.405 85 3.405 85s20.135-1.82 26.738-14.02c-17.27-.528-18.683-14.537-18.683-14.537 12.807-1.003 11.632-9.863 27.462-15.408 0 0 6.615-16.662 27.423-16.662 14.207 0 23.554 7.592 23.554 7.592-5.705-12.068 2.19-17.39 2.19-17.39s7.184 9.93 12.98 9.93c13.6 0 38.896-22.102 68.67-22.102 41.312 0 69.87 27.977 69.87 64.59 0 10.298-2.112 18.194-2.112 18.194h-53.34s2.27-6.007 2.27-13.256c.027-6.627-2.812-14.84-12.846-14.84z" fill="#F1BE48"/><path d="M40.613 124.387s4.37 8.925 15.923 8.925c7.63 0 12.807-4.317 14.286-5.004-16.134-5.347-16.464-10.998-20.438-10.998-3.67-.013-5.955 6.232-9.77 7.077zm24.426 3.947s-4.28 2.416-8.702 2.416c-8.503 0-12.134-5.65-12.134-5.65 2.693-.582 3.75-4.926 6.55-4.926 2.35 0 3.102 5.507 14.285 8.16z" fill="#F1BE48"/><path d="M236.613 79.417s1.32-4.7 1.32-12.398c0-32.494-27.49-59.032-64.18-59.032-28.4 0-50.832 22.168-68.973 22.168-6.826 0-11.21-6.27-11.21-6.27s.503 14.1 18.895 21.64c-22.287-1.057-28.123-15.91-45.353-15.91-17.072 0-23.515 13.453-23.515 13.453s4.476-4.318 11.117-4.318c16.57 0 15.54 16.596 35.913 31.04-11.698 0-16.213-6.284-30.526-6.284-28.53 0-22.286 18.828-44.626 24.056 0 0 4.265 3.182 10.906 3.182 15.685 0 15.778-7.684 27-7.684 11.5 0 9.784 8.278 23.436 17.917-3.156.95-12.57-6.14-21.983-6.14-9.348 0-14.405 6.522-15.91 15.197-1.505 8.714-6.087 10.932-6.087 10.932 9.36.554 10.074-9.507 16.834-9.507 6.404 0 10.457 8.78 18.722 10.444 6.628 1.347 14.497 3.17 17.455 7.988-14.01 1.36-16.78 8.45-29.298 8.45-14.155 0-20.162-11.09-20.162-11.09-.766 16.57 10.114 38.724 29.298 38.724 10.048 0 17.27-3.54 24.53.382-23.46 6.68-14.034 26.71-30.063 34.223 0 0 2.693 1.307 6.786 1.307 13.56 0 16.04-18.168 36.242-18.168 14.946 0 26.248 11.685 46.237 11.685 43.94 0 75.917-45.01 79.667-66.598H183.68s-8.436 23-28.254 23c-19.277 0-29.31-14.655-29.31-34.87 0-28.835 22.55-66.015 51.412-66.015 12.622 0 19.33 10.853 19.33 20.425 0 4.938-1.282 8.04-1.282 8.04h41.035v.025z" fill="#111"/><path d="M68.59 56.074s-7.935-10.72-20.518-10.72c-15.844 0-20.676 13.057-30.17 14.074 0 0 3.17 5.875 13.1 5.875 20.74 0 18.26-15.092 37.588-9.23zm10.536 112.253c-9.36-3.433-15.223 3.42-23.634 3.42-14.96 0-15.42-17.89-25.693-21.204 0 0 2.402 5.162 2.402 8.344 0 5.73 3.433 27.713 19.475 27.713 13.428-.027 13.058-10.708 27.45-18.273z" fill="#111"/></svg>