<svg xmlns="http://www.w3.org/2000/svg" viewBox="0 0 249.277 173.098"><title>Philadelphia Flyers light logo</title><path d="M170.88 0H0v5.404C0 20.407 7.2 33.66 18.067 41.448H0v5.404c0 15.003 7.2 28.256 18.067 36.044H0V88.3c0 15.003 7.2 28.24 18.067 36.03H0v5.403c0 23.91 18.233 43.365 40.618 43.365h38.686l28.543-48.255c14.777 20.015 38.097 31.97 63.032 31.97 43.228 0 78.397-35.17 78.397-78.4C249.292 35.17 214.123 0 170.88 0z" fill="#FFF"/><path d="M110.23 140.706c-3.123 0-5.66 2.536-5.66 5.66s2.537 5.66 5.66 5.66a5.661 5.661 0 0 0 0-11.32zm0 10.113a4.451 4.451 0 0 1-4.452-4.454c0-2.46 1.992-4.453 4.453-4.453s4.454 1.992 4.454 4.453a4.451 4.451 0 0 1-4.453 4.453z" fill="#FFF"/><path d="M112.556 145.053a1.929 1.929 0 0 0-1.917-1.917h-2.733v6.46h1.208v-2.626h.875l1.223 2.626h1.343l-1.283-2.732a1.91 1.91 0 0 0 1.283-1.81zm-1.917.71h-1.525v-1.42h1.524c.376 0 .708.317.708.71a.72.72 0 0 1-.71.71z" fill="#FFF"/><path d="M170.88 5.404H6.972c0 20.95 15.773 37.96 35.214 37.96h61.764c.952 0 1.737.786 1.737 1.737a1.75 1.75 0 0 1-1.736 1.752H6.974c0 20.966 15.773 37.96 35.214 37.96h37.237c.966 0 1.75.786 1.75 1.737 0 .95-.784 1.75-1.75 1.75H6.974c0 20.95 15.772 37.946 35.213 37.946H54.91c.967 0 1.752.785 1.752 1.75a1.74 1.74 0 0 1-1.75 1.737H6.97c0 20.965 15.774 37.96 35.215 37.96H76.24l63.636-107.59c6.28-10.595 17.826-17.72 31.018-17.72 19.88 0 36.014 16.12 36.014 36.03 0 19.88-16.12 36.014-36.014 36.014-19.637 0-35.592-15.728-36-35.26l-24.09 40.694c13.178 19.065 35.17 31.547 60.075 31.547 40.315 0 73.024-32.678 73.024-72.994 0-40.33-32.71-73.01-73.025-73.01z"/><circle cx="170.879" cy="78.398" r="20.724" fill="#F74902"/></svg>